<svg width="302" height="106" viewBox="0 0 302 106" fill="none" xmlns="http://www.w3.org/2000/svg">
<path fill-rule="evenodd" clip-rule="evenodd" d="M90.3185 65.9718V54.9563H94.4965C95.2702 54.9563 95.7344 54.9563 96.1986 55.1114C96.8175 55.2666 97.2818 55.4217 97.5912 55.5769C97.9007 55.8872 98.2102 56.1974 98.5197 56.6629C98.6744 57.1283 98.8291 57.5938 98.8291 58.2144C98.8291 59.1453 98.5197 59.921 97.9007 60.5416C97.2818 61.1622 96.1986 61.4725 94.6512 61.4725H91.8659V65.9718H90.3185ZM91.7112 60.2313H94.4965C95.4249 60.2313 96.0438 60.0761 96.5081 59.7659C96.9723 59.4556 97.127 58.835 97.127 58.2144C97.127 57.7489 96.9723 57.2835 96.8175 56.9732C96.6628 56.6629 96.3533 56.3526 95.8891 56.3526C95.5796 56.1975 95.1154 56.1974 94.4965 56.1974H91.7112V60.2313ZM100.377 65.9718V57.9041H101.614V59.1453C101.924 58.5247 102.233 58.2144 102.543 58.0592C102.852 57.9041 103.162 57.7489 103.471 57.7489C103.935 57.7489 104.4 57.9041 104.864 58.2144L104.4 59.4556C104.09 59.3004 103.781 59.1453 103.317 59.1453C103.007 59.1453 102.852 59.3004 102.543 59.4556C102.388 59.6107 102.079 59.921 102.079 60.2313C101.924 60.6967 101.924 61.3173 101.924 61.7828V65.9718H100.377ZM105.019 61.9379C105.019 60.3864 105.483 59.3004 106.257 58.6798C107.03 58.0592 107.804 57.7489 108.732 57.7489C109.816 57.7489 110.744 58.2144 111.518 58.835C112.291 59.6107 112.601 60.5416 112.601 61.7828C112.601 62.8688 112.446 63.6446 112.137 64.2651C111.827 64.8857 111.363 65.3512 110.744 65.6615C110.125 65.9718 109.506 66.1269 108.732 66.1269C107.649 66.1269 106.721 65.8166 105.947 65.0409C105.483 64.4203 105.019 63.3343 105.019 61.9379ZM106.411 61.9379C106.411 63.024 106.566 63.7997 107.185 64.2651C107.649 64.7306 108.268 65.0409 108.887 65.0409C109.661 65.0409 110.125 64.7306 110.589 64.2651C111.053 63.7997 111.208 63.024 111.208 61.9379C111.208 60.8519 111.053 60.2313 110.589 59.7659C110.125 59.3004 109.506 58.9901 108.887 58.9901C108.268 58.9901 107.649 59.3004 107.185 59.7659C106.721 60.2313 106.411 60.8519 106.411 61.9379ZM113.993 66.5924L115.386 66.7475C115.386 67.213 115.541 67.5233 115.85 67.6784C116.16 67.9887 116.624 67.9887 117.243 67.9887C117.862 67.9887 118.326 67.8336 118.636 67.6784C118.945 67.3681 119.255 67.0578 119.409 66.5924C119.409 66.2821 119.564 65.6615 119.564 64.8857C118.945 65.6615 118.171 65.9718 117.398 65.9718C116.315 65.9718 115.541 65.5063 114.922 64.7306C114.303 63.9549 113.993 63.024 113.993 61.9379C113.993 61.1622 114.148 60.3864 114.458 59.7659C114.767 59.1453 115.077 58.5247 115.696 58.2144C116.315 57.9041 116.779 57.7489 117.552 57.7489C118.481 57.7489 119.255 58.2144 119.873 58.9901V57.9041H121.111V64.8857C121.111 66.1269 120.957 67.0578 120.802 67.5233C120.492 67.9887 120.183 68.4542 119.564 68.7644C119.1 69.0747 118.326 69.2299 117.552 69.2299C116.624 69.2299 115.85 69.0747 115.231 68.6093C114.148 68.1439 113.839 67.5233 113.993 66.5924ZM115.077 61.7828C115.077 62.8688 115.231 63.6446 115.696 64.11C116.16 64.5754 116.624 64.8857 117.243 64.8857C117.862 64.8857 118.326 64.7306 118.79 64.11C119.255 63.6446 119.409 62.8688 119.409 61.9379C119.409 61.007 119.255 60.0762 118.79 59.6107C118.326 59.1453 117.862 58.835 117.243 58.835C116.624 58.835 116.16 59.1453 115.696 59.6107C115.231 60.0762 115.077 60.8519 115.077 61.7828ZM122.814 65.9718V57.9041H124.051V59.1453C124.361 58.5247 124.67 58.2144 124.98 58.0592C125.289 57.9041 125.444 57.7489 125.908 57.7489C126.372 57.7489 126.837 57.9041 127.301 58.2144L126.837 59.4556C126.527 59.3004 126.218 59.1453 125.908 59.1453C125.599 59.1453 125.289 59.3004 125.135 59.4556C124.825 59.6107 124.67 59.921 124.67 60.2313C124.516 60.6967 124.516 61.3173 124.516 61.7828V65.9718H122.814ZM133.181 64.8857C132.717 65.3512 132.253 65.6615 131.788 65.8166C131.324 65.9718 130.86 66.1269 130.241 66.1269C129.312 66.1269 128.694 65.9718 128.229 65.5063C127.765 65.0409 127.456 64.5754 127.456 63.9549C127.456 63.4894 127.61 63.1791 127.765 62.8688C127.92 62.5585 128.229 62.2482 128.539 62.0931C128.848 61.9379 129.158 61.7828 129.622 61.6276C129.931 61.6276 130.241 61.4725 130.86 61.4725C131.943 61.3173 132.717 61.1622 133.336 61.007C133.336 60.8519 133.336 60.6967 133.336 60.6967C133.336 60.2313 133.181 59.7659 132.871 59.6107C132.562 59.3004 131.943 59.1453 131.324 59.1453C130.705 59.1453 130.241 59.3004 129.931 59.4556C129.622 59.6107 129.467 60.0762 129.312 60.6967L127.92 60.5416C128.075 59.921 128.229 59.4556 128.539 59.1453C128.848 58.835 129.312 58.5247 129.777 58.3695C130.241 58.2144 130.86 58.0592 131.634 58.0592C132.407 58.0592 132.871 58.2144 133.336 58.3695C133.8 58.5247 134.109 58.6798 134.264 58.9901C134.419 59.1453 134.574 59.4556 134.728 59.921C134.728 60.0762 134.728 60.5416 134.728 61.1622V63.024C134.728 64.2652 134.728 65.0409 134.883 65.3512C134.883 65.6615 135.038 65.9718 135.193 66.2821H133.8C133.336 65.6615 133.181 65.3512 133.181 64.8857ZM133.026 61.9379C132.562 62.0931 131.788 62.2482 130.86 62.4034C130.241 62.5585 129.931 62.5585 129.622 62.7137C129.467 62.8688 129.158 63.024 129.158 63.1791C129.003 63.3343 129.003 63.6446 129.003 63.7997C129.003 64.11 129.158 64.4203 129.467 64.7306C129.777 64.8857 130.086 65.0409 130.705 65.0409C131.169 65.0409 131.788 64.8857 132.098 64.7306C132.562 64.5754 132.871 64.2652 133.026 63.7997C133.181 63.4894 133.181 63.024 133.181 62.4034V61.9379H133.026ZM136.585 65.9718V57.9041H137.823V58.9901C137.978 58.5247 138.442 58.2144 138.906 58.0592C139.37 57.7489 139.835 57.5938 140.299 57.5938C140.918 57.5938 141.382 57.7489 141.692 58.0592C142.156 58.2144 142.31 58.6798 142.465 59.1453C143.084 58.2144 143.858 57.7489 144.941 57.7489C145.715 57.7489 146.334 57.9041 146.798 58.3695C147.262 58.835 147.417 59.4556 147.417 60.3864V65.8166H146.024V60.6967C146.024 60.2313 146.024 59.7659 145.869 59.4556C145.715 59.3004 145.56 58.9901 145.405 58.835C145.25 58.6798 144.941 58.6798 144.632 58.6798C144.013 58.6798 143.548 58.835 143.239 59.3004C142.929 59.7659 142.62 60.2313 142.62 61.1622V65.8166H141.227V60.5416C141.227 59.921 141.073 59.4556 140.918 59.1453C140.763 58.835 140.299 58.6798 139.835 58.6798C139.37 58.6798 139.061 58.835 138.752 58.9901C138.442 59.1453 138.133 59.4556 137.978 59.921C137.823 60.3864 137.823 60.8519 137.823 61.6276V65.8166H136.585V65.9718ZM153.761 69.0747V57.9041H154.999V58.9901C155.308 58.5247 155.618 58.2144 155.927 58.0592C156.392 57.9041 156.701 57.7489 157.32 57.7489C157.939 57.7489 158.558 57.9041 159.177 58.2144C159.796 58.5247 160.105 59.1453 160.415 59.7659C160.724 60.3864 160.879 61.1622 160.879 61.9379C160.879 62.7137 160.724 63.4894 160.415 64.11C160.105 64.7306 159.641 65.196 159.177 65.6615C158.558 65.9718 158.094 66.1269 157.32 66.1269C156.856 66.1269 156.546 65.9718 156.082 65.8166C155.618 65.6615 155.463 65.3512 155.154 65.0409V68.9196H153.761V69.0747ZM154.999 61.9379C154.999 63.024 155.154 63.7997 155.618 64.2651C156.082 64.7306 156.546 65.0409 157.165 65.0409C157.784 65.0409 158.248 64.7306 158.713 64.2651C159.177 63.7997 159.332 63.024 159.332 61.9379C159.332 60.8519 159.177 60.2313 158.713 59.6107C158.248 59.1453 157.784 58.835 157.165 58.835C156.546 58.835 156.082 59.1453 155.618 59.6107C155.154 60.2313 154.999 61.007 154.999 61.9379ZM162.272 65.9718V57.9041H163.51V59.1453C163.819 58.5247 164.129 58.2144 164.438 58.0592C164.747 57.9041 164.902 57.7489 165.366 57.7489C165.831 57.7489 166.295 57.9041 166.759 58.2144L166.295 59.4556C165.985 59.3004 165.676 59.1453 165.212 59.1453C164.902 59.1453 164.593 59.3004 164.438 59.4556C164.129 59.6107 163.974 59.921 163.974 60.2313C163.819 60.6967 163.819 61.3173 163.819 61.7828V65.9718H162.272ZM166.914 61.9379C166.914 60.3864 167.378 59.3004 168.152 58.6798C168.771 58.0592 169.699 57.7489 170.628 57.7489C171.711 57.7489 172.639 58.2144 173.413 58.835C174.186 59.6107 174.496 60.5416 174.496 61.7828C174.496 62.8688 174.341 63.6446 174.032 64.2651C173.722 64.8857 173.258 65.3512 172.639 65.6615C172.02 65.9718 171.401 66.1269 170.782 66.1269C169.699 66.1269 168.771 65.8166 167.997 65.0409C167.223 64.4203 166.914 63.3343 166.914 61.9379ZM168.306 61.9379C168.306 63.024 168.461 63.7997 168.925 64.2651C169.39 64.7306 170.009 65.0409 170.628 65.0409C171.246 65.0409 171.865 64.7306 172.33 64.2651C172.794 63.7997 172.949 63.024 172.949 61.9379C172.949 60.8519 172.794 60.2313 172.175 59.7659C171.711 59.3004 171.092 58.9901 170.473 58.9901C169.854 58.9901 169.235 59.3004 168.771 59.7659C168.616 60.2313 168.306 60.8519 168.306 61.9379ZM180.376 65.9718V54.9563H181.769V65.9718H180.376ZM189.196 63.3343L190.589 63.4894C190.434 64.2651 189.97 64.8857 189.351 65.3512C188.732 65.8166 187.958 65.9718 187.03 65.9718C185.792 65.9718 184.863 65.6615 184.244 64.8857C183.626 64.11 183.161 63.1791 183.161 61.7828C183.161 60.3864 183.471 59.4556 184.244 58.6798C185.018 57.9041 185.792 57.5938 186.875 57.5938C187.958 57.5938 188.887 58.0592 189.506 58.6798C190.124 59.4556 190.589 60.3864 190.589 61.7828C190.589 61.9379 190.589 61.9379 190.589 62.2482H184.554C184.554 63.1791 184.863 63.7997 185.328 64.2651C185.792 64.7306 186.411 65.0409 187.03 65.0409C187.494 65.0409 187.958 64.8857 188.268 64.5754C188.577 64.2652 189.041 63.9549 189.196 63.3343ZM184.863 61.1622H189.351C189.351 60.5416 189.196 59.921 188.887 59.6107C188.422 59.1453 187.803 58.835 187.184 58.835C186.566 58.835 186.101 58.9901 185.637 59.4556C185.173 59.921 184.863 60.5416 184.863 61.1622ZM185.947 56.9732L186.875 54.8011H188.732L187.03 56.9732H185.947ZM192.446 65.9718V54.9563H193.838V61.1622L197.088 57.9041H198.79L195.695 60.8519L199.099 65.9718H197.397L194.767 61.9379L193.838 62.8688V65.9718H192.446ZM205.289 64.8857C204.825 65.3512 204.206 65.6615 203.896 65.8166C203.432 65.9718 202.968 66.1269 202.349 66.1269C201.42 66.1269 200.801 65.9718 200.337 65.5063C199.873 65.0409 199.563 64.5754 199.563 63.9549C199.563 63.4894 199.718 63.1791 199.873 62.8688C200.028 62.5585 200.337 62.2482 200.647 62.0931C200.956 61.9379 201.266 61.7828 201.73 61.6276C202.039 61.6276 202.349 61.4725 202.968 61.4725C204.051 61.3173 204.825 61.1622 205.444 61.007C205.444 60.8519 205.444 60.6967 205.444 60.6967C205.444 60.2313 205.289 59.7659 204.979 59.6107C204.67 59.3004 204.051 59.1453 203.432 59.1453C202.813 59.1453 202.349 59.3004 202.039 59.4556C201.73 59.6107 201.575 60.0762 201.42 60.6967L200.028 60.5416C200.182 59.921 200.337 59.4556 200.647 59.1453C200.956 58.835 201.266 58.5247 201.885 58.3695C202.349 58.2144 202.968 58.0592 203.741 58.0592C204.515 58.0592 204.979 58.2144 205.444 58.3695C205.908 58.5247 206.217 58.6798 206.372 58.9901C206.527 59.1453 206.681 59.4556 206.836 59.921C206.836 60.0762 206.991 60.5416 206.991 61.1622V63.024C206.991 64.2652 206.991 65.0409 207.146 65.3512C207.146 65.6615 207.3 65.9718 207.455 66.2821H206.062C205.444 65.6615 205.444 65.3512 205.289 64.8857ZM205.289 61.9379C204.825 62.0931 204.051 62.2482 203.122 62.4034C202.504 62.5585 202.194 62.5585 201.885 62.7137C201.575 62.8688 201.42 63.024 201.42 63.1791C201.266 63.3343 201.266 63.6446 201.266 63.7997C201.266 64.11 201.42 64.4203 201.73 64.7306C202.039 64.8857 202.349 65.0409 202.968 65.0409C203.432 65.0409 204.051 64.8857 204.36 64.7306C204.67 64.5754 205.134 64.2652 205.289 63.7997C205.444 63.4894 205.444 63.024 205.444 62.4034L205.289 61.9379ZM208.693 65.9718V57.9041H209.931V59.1453C210.24 58.5247 210.55 58.2144 210.859 58.0592C211.169 57.9041 211.478 57.7489 211.788 57.7489C212.252 57.7489 212.716 57.9041 213.18 58.2144L212.716 59.4556C212.407 59.3004 212.097 59.1453 211.633 59.1453C211.324 59.1453 211.014 59.3004 210.859 59.4556C210.705 59.6107 210.395 59.921 210.395 60.2313C210.24 60.6967 210.086 61.3173 210.086 61.7828V65.9718H208.693ZM210.859 56.0423L211.633 54.646H213.18L211.478 56.818H210.086L208.538 54.646H210.086L210.859 56.0423ZM219.37 63.3343L220.763 63.4894C220.608 64.2651 220.144 64.8857 219.525 65.3512C218.906 65.8166 218.132 65.9718 217.204 65.9718C215.966 65.9718 215.037 65.6615 214.418 64.8857C213.799 64.11 213.335 63.1791 213.335 61.7828C213.335 60.3864 213.645 59.4556 214.418 58.6798C215.037 57.9041 215.966 57.5938 217.049 57.5938C218.132 57.5938 218.906 58.0592 219.679 58.6798C220.298 59.4556 220.763 60.3864 220.763 61.7828C220.763 61.9379 220.763 61.9379 220.763 62.2482H214.728C214.728 63.1791 215.037 63.7997 215.502 64.2651C215.966 64.7306 216.585 65.0409 217.204 65.0409C217.668 65.0409 218.132 64.8857 218.442 64.5754C218.906 64.4203 219.215 63.9549 219.37 63.3343ZM214.883 61.1622H219.37C219.37 60.5416 219.215 59.921 218.906 59.6107C218.442 59.1453 217.823 58.835 217.204 58.835C216.585 58.835 216.12 58.9901 215.656 59.4556C215.192 59.921 214.883 60.5416 214.883 61.1622Z" fill="white"/>
<path fill-rule="evenodd" clip-rule="evenodd" d="M16.1991 54.8011C16.1991 54.8011 14.8065 54.9563 14.1875 54.4909C13.4138 54.0254 12.9496 53.0945 13.5686 52.0085C14.3422 50.9224 20.5318 42.8547 21.3055 41.9239C21.4602 41.7687 13.2591 29.8223 27.495 19.2722C40.3382 9.8082 56.1215 13.5318 64.0131 18.1862C71.75 22.8406 86.1406 37.5797 75.1543 54.8011C70.6669 61.7828 67.8816 66.4373 65.7152 71.402C61.6921 80.4006 62.1563 85.9859 62.1563 85.9859C62.1563 85.9859 61.6921 79.78 63.7037 72.7983C65.87 65.5064 71.4405 57.9041 73.2974 54.3357C76.8564 47.5092 81.3438 33.5459 65.87 22.9958C47.4562 10.2736 31.3634 17.2553 24.4002 25.7885C18.3654 33.2356 23.317 41.9239 23.317 41.9239L15.8896 51.0776C15.4254 51.543 14.1875 52.9394 14.8065 53.56C15.1159 54.646 16.1991 54.8011 16.1991 54.8011Z" fill="white"/>
<path fill-rule="evenodd" clip-rule="evenodd" d="M37.0887 38.976C36.1603 38.8209 32.4466 38.2003 31.5182 36.0282C29.8161 31.9944 32.7561 29.2017 32.7561 29.2017C32.7561 29.2017 32.2919 30.7532 32.1371 32.1495C31.9824 33.701 32.6013 34.0113 32.6013 34.0113C32.6013 34.0113 33.0656 32.4598 34.4582 31.8392C35.6961 31.3738 37.0887 32.4598 37.0887 32.4598C37.0887 32.4598 35.5414 32.3047 34.6129 32.9253C33.8392 33.5458 33.5298 34.6319 33.6845 35.0973C33.8392 36.4937 36.7793 37.2694 37.7077 37.5797C38.6361 35.8731 40.3382 33.8561 43.433 32.615C49.6225 30.4429 54.7289 33.701 54.7289 33.701C54.7289 33.701 48.6941 32.1495 44.0519 34.4767C40.9572 36.0282 40.0288 38.6657 39.874 39.7518C39.5645 40.8378 39.7193 43.0099 41.7309 44.7165C44.6709 47.5092 46.2183 46.7334 50.2415 49.2158C53.9552 51.3879 55.5026 56.1975 57.5141 57.5938C58.4426 58.2144 62.93 60.2313 66.1795 57.9041C69.7384 55.2666 71.1311 47.5092 71.1311 47.5092C71.1311 47.5092 71.9048 43.165 69.8932 38.3554C69.2742 36.6488 68.1911 34.9422 66.7984 33.3907C66.3342 33.2355 65.87 32.9253 65.4058 32.7701C64.9416 32.615 64.3226 32.4598 63.7037 32.4598C63.8584 32.615 64.9416 33.3907 65.5605 34.3216C66.1795 35.0973 66.6437 36.0282 66.6437 36.0282C66.6437 36.0282 65.5605 36.804 65.0963 37.5797C64.6321 38.0451 64.6321 38.6657 64.6321 38.6657C64.6321 38.6657 68.5005 38.0451 68.9647 40.5275C69.7384 44.5614 65.251 46.4231 65.251 46.4231C65.251 46.4231 68.81 43.165 66.9532 41.3032C65.5605 39.7518 62.311 41.6135 62.311 41.6135C62.311 41.6135 62.311 40.2172 62.93 38.8209C63.7037 37.1143 65.251 35.5628 65.251 35.5628C65.251 35.5628 64.6321 34.787 64.0131 34.0113C63.5489 33.3907 62.7752 32.615 62.7752 32.615C62.7752 32.615 62.0015 32.4598 61.2279 32.615C60.2994 32.7701 59.371 33.2355 59.371 33.2355C59.371 33.2355 59.99 32.1495 61.2279 31.6841C62.4658 31.2186 64.3226 31.3738 64.9416 31.3738C64.0131 30.2877 62.93 29.3568 62.0015 28.5811C60.9184 27.6502 59.8352 26.8745 58.5973 26.0987C57.5141 26.0987 55.1931 26.0987 52.7173 26.7193C49.932 27.4951 47.7657 29.0465 47.7657 29.0465C47.7657 29.0465 48.8488 27.4951 50.8604 26.2539C52.5625 25.323 55.1931 24.8576 56.1215 24.8576C52.4078 22.9958 48.6941 22.3752 45.7541 22.0649L43.7425 22.9958C43.7425 22.9958 47.7657 23.7715 45.2899 26.7193C43.1235 29.512 36.3151 27.9605 36.3151 27.9605C36.3151 27.9605 42.9688 28.1157 43.8972 25.7884C44.8256 23.3061 40.1835 24.5473 40.1835 24.5473L43.1235 21.9097C42.0404 21.9097 41.2667 22.0649 40.9572 22.0649C39.874 22.22 34.4582 22.8406 31.3634 26.2539C28.8876 28.8914 28.4234 30.7532 28.2687 31.6841C27.9592 32.615 27.495 35.4076 29.0424 37.2694C31.054 39.7518 34.4582 40.993 36.7793 41.4584C37.0887 41.4584 36.934 41.6135 37.0887 42.2341C37.0887 42.5444 37.2435 43.0099 37.2435 43.0099C37.2435 43.0099 29.6613 42.3893 26.5666 37.4245C24.8644 34.6319 25.7929 30.2877 26.1024 29.0465C26.5666 27.6502 27.8045 24.7024 33.0656 21.9097C37.0887 19.7377 42.3498 19.4274 44.9804 19.4274H45.1351C45.1351 19.5825 45.5993 20.5134 45.5993 20.5134L46.6825 19.4274C46.6825 19.4274 53.8004 20.048 59.6805 23.3061C59.6805 23.3061 59.8352 23.3061 59.8352 23.4612C59.8352 23.6164 59.6805 24.8576 59.6805 24.8576L61.5373 24.5473C61.5373 24.7024 61.5373 24.7024 61.6921 24.7024C64.3226 26.5642 66.6437 28.8914 68.1911 30.598L67.4174 31.8392L69.8932 32.615C69.8932 32.615 72.6785 36.804 73.2974 41.3032C73.9164 46.1128 72.2142 51.0776 72.2142 51.0776C72.2142 51.0776 71.1311 55.4217 68.0363 58.2144C68.0363 59.1453 68.0363 61.6276 66.4889 63.1791C64.0131 65.8166 61.2279 65.3512 61.2279 65.3512C61.2279 65.3512 63.8584 64.7306 65.0963 63.1791C66.0247 61.9379 65.87 60.3865 65.7153 59.921C64.7868 60.3865 63.7037 60.6968 62.4658 60.8519C62.311 60.8519 62.1563 60.8519 62.0015 60.8519C61.2279 61.7828 57.6689 65.6615 56.1215 70.4711C54.4194 75.9013 54.8836 82.2623 54.8836 82.2623C54.8836 82.2623 53.6457 76.677 54.5741 71.2468C55.5026 66.4372 58.1331 61.7828 58.752 60.5416C57.3594 60.2313 56.431 59.7659 55.5026 59.1453C55.3478 59.3004 54.2647 61.6276 53.3362 64.2652C52.2531 67.8336 51.4794 72.0226 51.4794 72.0226C51.4794 72.0226 51.3246 69.5402 51.7888 66.9027C52.0983 65.0409 52.4078 63.4894 52.4078 63.4894C52.4078 63.4894 50.8604 62.4034 50.2415 60.6968C49.7773 58.835 50.0867 56.8181 50.0867 56.8181C50.0867 56.8181 50.2415 58.9901 51.1699 60.5416C51.7888 61.6276 53.0267 62.0931 53.0267 62.0931L54.2646 58.0592C53.0267 56.6629 52.5625 55.1114 52.4078 54.8011C51.7888 54.1805 51.0152 52.7842 49.313 51.6982C47.6109 50.457 44.9804 49.6812 44.9804 49.6812C44.9804 49.6812 40.493 48.4401 38.4814 45.9577C37.3982 44.5614 36.934 43.165 36.934 41.9238C36.7793 40.993 36.934 40.2172 37.0887 39.7518C37.0887 39.2863 37.0887 39.1312 37.0887 38.976Z" fill="white"/>
<path fill-rule="evenodd" clip-rule="evenodd" d="M43.2783 37.2694C43.2783 37.2694 44.3614 37.5797 44.8256 38.2003C45.2899 38.6657 45.4446 39.1312 45.4446 39.1312C45.4446 39.1312 44.8256 40.5275 45.1351 41.3032C45.5993 42.5444 46.2183 43.165 47.3014 43.7856C49.1583 44.7165 50.3962 44.0959 53.0267 45.0268C53.9552 45.3371 54.7289 45.9577 55.5026 46.4231C55.6573 46.4231 55.6573 46.5783 55.812 46.5783C55.812 46.7334 55.6573 46.8886 55.5026 47.1989C55.0383 47.6643 54.4194 47.9746 54.4194 47.9746C54.4194 47.9746 55.0383 47.9746 55.6573 47.6643C56.1215 47.5092 56.2762 47.354 56.431 47.1989C57.8236 49.0606 57.5141 51.8533 57.5141 51.8533C57.5141 51.8533 59.0615 51.543 60.2994 52.0084C60.9184 52.1636 61.3826 52.629 61.6921 52.9393C61.5373 53.2496 61.5373 53.5599 61.0731 54.0254C60.6089 54.646 59.99 54.9563 59.99 54.9563C59.99 54.9563 60.6089 54.9563 61.5373 54.4908C62.0015 54.1805 62.4658 53.8702 62.6205 53.7151C63.0847 54.3357 64.3226 55.2666 65.4058 55.1114C67.2626 54.646 67.1079 51.6982 67.1079 51.6982C67.1079 51.6982 66.3342 54.3357 64.6321 53.5599C63.5489 53.2496 62.6205 51.3879 61.5373 50.6121C60.4542 49.8364 59.2163 50.1467 59.2163 50.1467C59.2163 50.1467 59.371 47.1989 57.6689 45.6474C55.812 43.9407 53.3362 43.3202 51.9436 43.165C51.9436 42.8547 52.0983 42.3893 52.4078 42.079C53.1815 41.1481 54.5741 40.5275 54.5741 40.5275C54.5741 40.5275 53.1815 40.6826 51.9436 41.4584C51.3246 41.9238 50.8604 42.5444 50.5509 43.0099C49.1583 42.8547 47.4562 42.2341 47.1467 41.1481C46.373 38.976 49.6225 37.7348 49.6225 37.7348C49.6225 37.7348 48.8488 37.5797 48.0751 37.7348C47.3014 37.89 46.6825 38.5106 46.6825 38.5106C46.6825 38.5106 45.9088 37.5797 45.1351 37.2694C44.052 36.9591 43.2783 37.2694 43.2783 37.2694Z" fill="white"/>
<path fill-rule="evenodd" clip-rule="evenodd" d="M174.187 27.9605H183.007L187.494 41.9238L192.136 27.9605H200.647V49.0607H195.076L195.231 32.9252L189.815 49.0607H184.709L179.602 32.9252V49.0607H174.187V27.9605Z" fill="white"/>
<path fill-rule="evenodd" clip-rule="evenodd" d="M204.206 27.9605H219.061V31.9944H209.776V36.3385H218.596V40.2172H209.776V45.0268H219.37V49.0607H204.206V27.9605Z" fill="white"/>
<path fill-rule="evenodd" clip-rule="evenodd" d="M222.774 27.9605H230.356C232.213 27.9605 233.915 28.1157 235.463 28.426C237.01 28.7362 238.248 29.3568 239.486 30.1326C240.569 30.9083 241.343 31.9944 241.962 33.3907C242.581 34.787 242.89 36.4937 242.89 38.5106C242.89 40.5275 242.581 42.2341 241.962 43.4753C241.343 44.8717 240.414 45.9577 239.331 46.7334C238.248 47.5092 236.855 48.1298 235.308 48.5952C233.761 49.0607 232.059 49.2158 230.356 49.2158H222.774V27.9605ZM228.345 44.8717H230.511C232.677 44.8717 234.225 44.4062 235.308 43.3202C236.391 42.2341 237.01 40.6827 237.01 38.5106C237.01 36.3385 236.391 34.787 235.308 33.701C234.225 32.615 232.523 32.1495 230.511 32.1495H228.345V44.8717Z" fill="white"/>
<path fill-rule="evenodd" clip-rule="evenodd" d="M244.592 27.9605H250.318V49.0607H244.592V27.9605Z" fill="white"/>
<path fill-rule="evenodd" clip-rule="evenodd" d="M259.602 37.89L253.567 27.9605H260.066L263.625 34.9422L267.184 27.9605H273.374L267.184 37.89L273.992 49.0607H267.184L263.161 41.3032L259.138 49.0607H252.793L259.602 37.89Z" fill="white"/>
<path fill-rule="evenodd" clip-rule="evenodd" d="M100.067 32.615C99.6028 32.4598 99.2933 32.4598 98.9839 32.3047C98.6744 32.1495 98.3649 32.1496 98.0554 31.9944C97.746 31.9944 97.4365 31.8393 97.127 31.8393C96.8175 31.8393 96.5081 31.8393 96.0439 31.8393C95.5796 31.8393 95.2702 31.8393 94.806 31.9944C94.3417 32.1496 94.0323 32.1495 93.568 32.4598C93.1038 32.615 92.9491 32.9253 92.6396 33.2356C92.4849 33.3907 92.4849 33.8562 92.4849 34.3216C92.4849 34.9422 92.6396 35.4077 93.1038 35.8731C93.5681 36.3385 94.187 36.6488 94.806 36.9591C95.5796 37.2694 96.1986 37.5797 96.9723 37.89C97.746 38.2003 98.5197 38.6658 99.1386 39.1312C99.7576 39.5967 100.377 40.2172 100.841 40.8378C101.305 41.4584 101.46 42.3893 101.46 43.3202C101.46 44.4062 101.305 45.182 100.841 45.9577C100.377 46.7335 99.9123 47.3541 99.2934 47.6644C98.5197 48.1298 97.746 48.4401 96.8175 48.7504C95.8891 48.9055 94.9607 49.0607 93.8775 49.0607C93.1038 49.0607 92.4849 48.9055 91.7112 48.7504C90.9375 48.5952 90.3186 48.4401 89.5449 48.285L89.8543 45.8026C90.1638 45.9577 90.4733 45.9577 90.7828 46.1129C91.0922 46.268 91.5565 46.268 91.8659 46.4232C92.3301 46.5783 92.6396 46.5783 93.1038 46.5783C93.5681 46.7335 93.8775 46.7335 94.3417 46.7335C94.8059 46.7335 95.2702 46.7335 95.7344 46.5783C96.1986 46.4232 96.6628 46.268 97.127 46.1129C97.5912 45.8026 97.9007 45.4923 98.2102 45.182C98.5197 44.8717 98.6744 44.4062 98.6744 43.7857C98.6744 43.0099 98.5197 42.5445 98.0554 42.079C97.5912 41.6136 96.9723 41.3033 96.3533 40.8378C95.7344 40.5275 94.9607 40.2172 94.187 39.907C93.4133 39.5967 92.6396 39.2864 92.0207 38.8209C91.247 38.3555 90.7828 37.89 90.3186 37.2694C89.8543 36.6488 89.6996 35.8731 89.6996 34.7871C89.6996 34.0113 89.8543 33.2356 90.1638 32.615C90.4733 31.9944 90.9375 31.3738 91.5565 31.0635C92.1754 30.7532 92.9491 30.2878 93.7228 30.1326C94.4965 29.8223 95.4249 29.8223 96.3533 29.8223C97.127 29.8223 97.746 29.8223 98.5197 29.9775C99.2934 30.1326 100.067 30.2878 100.686 30.4429L100.067 32.615Z" fill="white"/>
<path fill-rule="evenodd" clip-rule="evenodd" d="M104.09 34.787H106.721V36.804H106.875C107.34 36.0282 108.113 35.4076 108.887 35.0973C109.661 34.6319 110.589 34.4767 111.827 34.4767C112.756 34.4767 113.529 34.6319 114.303 35.0973C115.077 35.5628 115.696 36.1834 116.16 37.1143C116.469 36.6488 116.779 36.1834 117.243 35.8731C117.707 35.5628 118.017 35.2525 118.481 35.0973C118.945 34.9422 119.409 34.6319 119.873 34.6319C120.338 34.4767 120.647 34.4767 121.111 34.4767C122.04 34.4767 122.968 34.6319 123.587 34.9422C124.361 35.2525 124.825 35.5628 125.289 36.0282C125.754 36.4937 126.063 37.1143 126.218 37.5797C126.372 38.2003 126.527 38.976 126.527 39.7518V48.7504H123.742V40.5275C123.742 40.0621 123.742 39.5966 123.587 39.1312C123.587 38.6657 123.432 38.3554 123.123 37.89C122.968 37.5797 122.659 37.2694 122.349 36.9591C122.04 36.804 121.576 36.6488 120.957 36.6488C120.183 36.6488 119.564 36.804 119.1 37.1143C118.636 37.4246 118.171 37.7349 117.862 38.2003C117.552 38.6657 117.243 39.2863 117.088 39.7518C116.933 40.3724 116.779 40.993 116.779 41.6136V48.7504H113.993V40.5275C113.993 40.0621 113.993 39.5966 113.839 39.1312C113.684 38.6657 113.684 38.3554 113.374 37.89C113.22 37.5797 112.91 37.2694 112.601 36.9591C112.291 36.804 111.827 36.6488 111.208 36.6488C110.434 36.6488 109.816 36.804 109.351 37.1143C108.887 37.4246 108.423 37.7349 108.113 38.2003C107.804 38.6657 107.494 39.2863 107.34 39.7518C107.185 40.3724 107.185 40.993 107.185 41.6136V48.7504H104.4V34.787H104.09Z" fill="white"/>
<path fill-rule="evenodd" clip-rule="evenodd" d="M130.705 35.8731C131.479 35.4076 132.098 35.0973 133.026 34.9422C133.955 34.787 134.728 34.6319 135.811 34.6319C137.978 34.6319 139.525 35.0973 140.608 36.0282C141.537 36.9591 142.001 38.3555 142.001 40.2172V45.9577C142.001 46.7335 142.001 47.354 142.001 47.8195C142.001 48.2849 142.001 48.5952 142.156 48.7504H139.525V47.0437H139.37C139.216 47.1989 139.061 47.5092 138.751 47.6643C138.442 47.9746 138.133 48.1298 137.668 48.4401C137.204 48.5952 136.895 48.9055 136.276 48.9055C135.811 49.0607 135.193 49.0607 134.574 49.0607C133.8 49.0607 133.026 48.9055 132.252 48.7504C131.479 48.5952 131.015 48.2849 130.396 47.9746C129.931 47.6643 129.467 47.1989 129.312 46.5783C129.003 46.1129 128.848 45.3371 128.848 44.7165C128.848 43.7856 129.003 43.165 129.622 42.5445C130.241 41.9239 130.705 41.4584 131.324 41.1481C131.943 40.8378 132.871 40.5275 133.645 40.3724C134.419 40.2172 135.193 40.2172 135.966 40.2172C136.585 40.2172 137.049 40.2172 137.514 40.2172C137.978 40.2172 138.442 40.2172 139.061 40.2172C139.061 38.976 138.751 38.0452 138.287 37.5797C137.823 36.9591 136.74 36.6488 135.347 36.6488C134.574 36.6488 133.8 36.804 132.871 37.1143C132.098 37.2694 131.324 37.7349 130.86 38.2003L130.705 35.8731ZM139.061 42.079C138.751 42.079 138.442 42.079 138.133 42.079C137.823 42.079 137.514 42.079 137.204 42.079C136.74 42.079 136.276 42.079 135.657 42.2342C135.038 42.2342 134.419 42.3893 133.955 42.5445C133.336 42.6996 132.871 43.0099 132.407 43.3202C131.943 43.6305 131.788 44.0959 131.788 44.7165C131.788 45.0268 131.943 45.3371 132.098 45.6474C132.252 45.9577 132.562 46.1129 132.717 46.4232C133.026 46.5783 133.336 46.7334 133.645 46.8886C133.955 47.0437 134.264 47.0437 134.728 47.0437C136.121 47.0437 137.204 46.7335 137.823 45.9577C138.597 45.182 138.906 44.4062 138.906 43.3202V42.079H139.061Z" fill="white"/>
<path fill-rule="evenodd" clip-rule="evenodd" d="M145.715 34.787H148.345V36.9591H148.5C148.809 36.1834 149.428 35.5628 150.202 35.2525C150.976 34.787 151.75 34.4767 152.523 34.4767C152.987 34.4767 153.297 34.4767 153.606 34.4767C153.916 34.4767 154.225 34.6319 154.535 34.6319V36.9591C154.225 36.804 154.071 36.804 153.761 36.804C153.452 36.804 153.297 36.804 152.987 36.804C151.749 36.804 150.666 37.2694 149.893 38.3554C149.119 39.4415 148.655 40.8378 148.655 42.5444V48.7504H145.869V34.787H145.715Z" fill="white"/>
<path fill-rule="evenodd" clip-rule="evenodd" d="M166.45 36.9591H162.426V44.5614C162.426 45.3371 162.581 45.9577 163.2 46.4231C163.664 46.8886 164.283 47.0437 164.902 47.0437C165.366 47.0437 165.676 47.0437 165.985 46.8886C166.295 46.7334 166.604 46.7334 166.759 46.5783V48.7504C166.45 48.9055 165.985 48.9055 165.676 49.0607C165.212 49.2158 164.748 49.2158 164.283 49.2158C162.891 49.2158 161.653 48.9055 160.879 48.2849C160.105 47.6643 159.641 46.5783 159.641 45.182V37.1142H156.237V34.787H159.641V31.6841L162.426 30.9083V34.787H166.45V36.9591Z" fill="white"/>
<path fill-rule="evenodd" clip-rule="evenodd" d="M278.016 27.9605C278.635 27.9605 279.254 28.1157 279.718 28.426C280.182 28.7362 280.801 29.2017 281.11 29.8223C281.42 30.4429 281.575 30.9083 281.575 31.6841C281.575 32.3047 281.42 32.9252 281.11 33.3907C280.801 34.0113 280.337 34.4767 279.718 34.787C279.099 35.0973 278.635 35.2525 278.016 35.2525C277.397 35.2525 276.778 35.0973 276.159 34.787C275.54 34.4767 275.076 34.0113 274.766 33.3907C274.457 32.7701 274.302 32.3047 274.302 31.6841C274.302 31.0635 274.457 30.4429 274.766 29.8223C275.076 29.2017 275.54 28.7362 276.159 28.426C276.778 28.1157 277.397 27.9605 278.016 27.9605ZM278.016 28.5811C277.551 28.5811 276.932 28.7362 276.468 29.0465C276.004 29.3568 275.695 29.6671 275.385 30.1326C275.076 30.598 274.921 31.2186 274.921 31.6841C274.921 32.1495 275.076 32.7701 275.385 33.0804C275.695 33.5458 276.004 34.0113 276.468 34.1664C276.932 34.4767 277.397 34.6319 278.016 34.6319C278.48 34.6319 279.099 34.4767 279.563 34.1664C280.027 33.8561 280.337 33.5458 280.646 33.0804C280.956 32.615 281.11 32.1495 281.11 31.6841C281.11 31.2186 280.956 30.598 280.646 30.1326C280.337 29.6671 280.027 29.3568 279.563 29.0465C278.944 28.7362 278.48 28.5811 278.016 28.5811ZM276.468 33.5458H277.087V31.8392H277.397C277.551 31.8392 277.861 31.8392 277.861 31.9944C278.016 32.1495 278.325 32.4598 278.48 32.9252L278.789 33.5458H279.563L279.099 32.7701C278.944 32.4598 278.635 32.1495 278.48 31.9944C278.325 31.8392 278.325 31.8392 278.17 31.8392C278.48 31.8392 278.789 31.6841 278.944 31.5289C279.099 31.3738 279.254 31.0635 279.254 30.7532C279.254 30.598 279.099 30.2877 279.099 30.1326C278.944 29.9774 278.789 29.8223 278.635 29.6671C278.48 29.6671 278.016 29.512 277.551 29.512H276.159V33.5458H276.468ZM277.087 31.3738H277.861C278.325 31.3738 278.48 31.3738 278.635 31.2186C278.789 31.0635 278.789 30.9083 278.789 30.7532C278.789 30.598 278.789 30.598 278.635 30.4429C278.635 30.2877 278.48 30.2877 278.325 30.2877C278.17 30.2877 278.016 30.2877 277.706 30.2877H276.932V31.3738H277.087Z" fill="white"/>
</svg>
