<?xml version="1.0" encoding="utf-8"?>
<!-- Generator: Adobe Illustrator 26.1.0, SVG Export Plug-In . SVG Version: 6.00 Build 0)  -->
<svg version="1.1" id="Layer_1" xmlns="http://www.w3.org/2000/svg" xmlns:xlink="http://www.w3.org/1999/xlink" x="0px" y="0px"
	 viewBox="0 0 302 98" style="enable-background:new 0 0 302 98;" xml:space="preserve">
<style type="text/css">
	.st0{fill-rule:evenodd;clip-rule:evenodd;fill:#FFFFFF;}
</style>
<path class="st0" d="M90.3,66V55h4.2c0.8,0,1.2,0,1.7,0.2c0.6,0.2,1.1,0.3,1.4,0.5c0.3,0.3,0.6,0.6,0.9,1.1c0.2,0.5,0.3,0.9,0.3,1.6
	c0,0.9-0.3,1.7-0.9,2.3c-0.6,0.6-1.7,0.9-3.2,0.9h-2.8V66H90.3z M91.7,60.2h2.8c0.9,0,1.5-0.2,2-0.5c0.5-0.3,0.6-0.9,0.6-1.6
	c0-0.5-0.2-0.9-0.3-1.2c-0.2-0.3-0.5-0.6-0.9-0.6c-0.3-0.2-0.8-0.2-1.4-0.2h-2.8V60.2z M100.4,66v-8.1h1.2v1.2
	c0.3-0.6,0.6-0.9,0.9-1.1c0.3-0.2,0.6-0.3,0.9-0.3c0.5,0,0.9,0.2,1.4,0.5l-0.5,1.2c-0.3-0.2-0.6-0.3-1.1-0.3c-0.3,0-0.5,0.2-0.8,0.3
	c-0.2,0.2-0.5,0.5-0.5,0.8c-0.2,0.5-0.2,1.1-0.2,1.6V66H100.4z M105,61.9c0-1.6,0.5-2.6,1.2-3.3c0.8-0.6,1.5-0.9,2.5-0.9
	c1.1,0,2,0.5,2.8,1.1c0.8,0.8,1.1,1.7,1.1,2.9c0,1.1-0.2,1.9-0.5,2.5c-0.3,0.6-0.8,1.1-1.4,1.4c-0.6,0.3-1.2,0.5-2,0.5
	c-1.1,0-2-0.3-2.8-1.1C105.5,64.4,105,63.3,105,61.9z M106.4,61.9c0,1.1,0.2,1.9,0.8,2.3c0.5,0.5,1.1,0.8,1.7,0.8
	c0.8,0,1.2-0.3,1.7-0.8c0.5-0.5,0.6-1.2,0.6-2.3c0-1.1-0.2-1.7-0.6-2.2c-0.5-0.5-1.1-0.8-1.7-0.8c-0.6,0-1.2,0.3-1.7,0.8
	C106.7,60.2,106.4,60.9,106.4,61.9z M114,66.6l1.4,0.2c0,0.5,0.2,0.8,0.5,0.9c0.3,0.3,0.8,0.3,1.4,0.3c0.6,0,1.1-0.2,1.4-0.3
	c0.3-0.3,0.6-0.6,0.8-1.1c0-0.3,0.2-0.9,0.2-1.7c-0.6,0.8-1.4,1.1-2.2,1.1c-1.1,0-1.9-0.5-2.5-1.2c-0.6-0.8-0.9-1.7-0.9-2.8
	c0-0.8,0.2-1.6,0.5-2.2c0.3-0.6,0.6-1.2,1.2-1.6c0.6-0.3,1.1-0.5,1.9-0.5c0.9,0,1.7,0.5,2.3,1.2v-1.1h1.2v7c0,1.2-0.2,2.2-0.3,2.6
	c-0.3,0.5-0.6,0.9-1.2,1.2c-0.5,0.3-1.2,0.5-2,0.5c-0.9,0-1.7-0.2-2.3-0.6C114.1,68.1,113.8,67.5,114,66.6z M115.1,61.8
	c0,1.1,0.2,1.9,0.6,2.3c0.5,0.5,0.9,0.8,1.5,0.8c0.6,0,1.1-0.2,1.5-0.8c0.5-0.5,0.6-1.2,0.6-2.2s-0.2-1.9-0.6-2.3
	c-0.5-0.5-0.9-0.8-1.5-0.8c-0.6,0-1.1,0.3-1.5,0.8C115.2,60.1,115.1,60.9,115.1,61.8z M122.8,66v-8.1h1.2v1.2
	c0.3-0.6,0.6-0.9,0.9-1.1c0.3-0.2,0.5-0.3,0.9-0.3c0.5,0,0.9,0.2,1.4,0.5l-0.5,1.2c-0.3-0.2-0.6-0.3-0.9-0.3c-0.3,0-0.6,0.2-0.8,0.3
	c-0.3,0.2-0.5,0.5-0.5,0.8c-0.2,0.5-0.2,1.1-0.2,1.6V66H122.8z M133.2,64.9c-0.5,0.5-0.9,0.8-1.4,0.9c-0.5,0.2-0.9,0.3-1.5,0.3
	c-0.9,0-1.5-0.2-2-0.6c-0.5-0.5-0.8-0.9-0.8-1.6c0-0.5,0.2-0.8,0.3-1.1c0.2-0.3,0.5-0.6,0.8-0.8c0.3-0.2,0.6-0.3,1.1-0.5
	c0.3,0,0.6-0.2,1.2-0.2c1.1-0.2,1.9-0.3,2.5-0.5c0-0.2,0-0.3,0-0.3c0-0.5-0.2-0.9-0.5-1.1c-0.3-0.3-0.9-0.5-1.5-0.5
	c-0.6,0-1.1,0.2-1.4,0.3c-0.3,0.2-0.5,0.6-0.6,1.2l-1.4-0.2c0.2-0.6,0.3-1.1,0.6-1.4c0.3-0.3,0.8-0.6,1.2-0.8
	c0.5-0.2,1.1-0.3,1.9-0.3c0.8,0,1.2,0.2,1.7,0.3c0.5,0.2,0.8,0.3,0.9,0.6c0.2,0.2,0.3,0.5,0.5,0.9c0,0.2,0,0.6,0,1.2V63
	c0,1.2,0,2,0.2,2.3c0,0.3,0.2,0.6,0.3,0.9h-1.4C133.3,65.7,133.2,65.4,133.2,64.9z M133,61.9c-0.5,0.2-1.2,0.3-2.2,0.5
	c-0.6,0.2-0.9,0.2-1.2,0.3c-0.2,0.2-0.5,0.3-0.5,0.5c-0.2,0.2-0.2,0.5-0.2,0.6c0,0.3,0.2,0.6,0.5,0.9c0.3,0.2,0.6,0.3,1.2,0.3
	c0.5,0,1.1-0.2,1.4-0.3c0.5-0.2,0.8-0.5,0.9-0.9c0.2-0.3,0.2-0.8,0.2-1.4v-0.5H133z M136.6,66v-8.1h1.2V59c0.2-0.5,0.6-0.8,1.1-0.9
	c0.5-0.3,0.9-0.5,1.4-0.5c0.6,0,1.1,0.2,1.4,0.5c0.5,0.2,0.6,0.6,0.8,1.1c0.6-0.9,1.4-1.4,2.5-1.4c0.8,0,1.4,0.2,1.9,0.6
	c0.5,0.5,0.6,1.1,0.6,2v5.4H146v-5.1c0-0.5,0-0.9-0.2-1.2c-0.2-0.2-0.3-0.5-0.5-0.6c-0.2-0.2-0.5-0.2-0.8-0.2
	c-0.6,0-1.1,0.2-1.4,0.6c-0.3,0.5-0.6,0.9-0.6,1.9v4.7h-1.4v-5.3c0-0.6-0.2-1.1-0.3-1.4c-0.2-0.3-0.6-0.5-1.1-0.5
	c-0.5,0-0.8,0.2-1.1,0.3c-0.3,0.2-0.6,0.5-0.8,0.9c-0.2,0.5-0.2,0.9-0.2,1.7v4.2h-1.2V66z M153.8,69.1V57.9h1.2V59
	c0.3-0.5,0.6-0.8,0.9-0.9c0.5-0.2,0.8-0.3,1.4-0.3c0.6,0,1.2,0.2,1.9,0.5c0.6,0.3,0.9,0.9,1.2,1.6c0.3,0.6,0.5,1.4,0.5,2.2
	c0,0.8-0.2,1.6-0.5,2.2c-0.3,0.6-0.8,1.1-1.2,1.6c-0.6,0.3-1.1,0.5-1.9,0.5c-0.5,0-0.8-0.2-1.2-0.3c-0.5-0.2-0.6-0.5-0.9-0.8v3.9
	h-1.4V69.1z M155,61.9c0,1.1,0.2,1.9,0.6,2.3c0.5,0.5,0.9,0.8,1.5,0.8c0.6,0,1.1-0.3,1.5-0.8c0.5-0.5,0.6-1.2,0.6-2.3
	c0-1.1-0.2-1.7-0.6-2.3c-0.5-0.5-0.9-0.8-1.5-0.8c-0.6,0-1.1,0.3-1.5,0.8C155.2,60.2,155,61,155,61.9z M162.3,66v-8.1h1.2v1.2
	c0.3-0.6,0.6-0.9,0.9-1.1c0.3-0.2,0.5-0.3,0.9-0.3c0.5,0,0.9,0.2,1.4,0.5l-0.5,1.2c-0.3-0.2-0.6-0.3-1.1-0.3c-0.3,0-0.6,0.2-0.8,0.3
	c-0.3,0.2-0.5,0.5-0.5,0.8c-0.2,0.5-0.2,1.1-0.2,1.6V66H162.3z M166.9,61.9c0-1.6,0.5-2.6,1.2-3.3c0.6-0.6,1.5-0.9,2.5-0.9
	c1.1,0,2,0.5,2.8,1.1c0.8,0.8,1.1,1.7,1.1,2.9c0,1.1-0.2,1.9-0.5,2.5c-0.3,0.6-0.8,1.1-1.4,1.4c-0.6,0.3-1.2,0.5-1.9,0.5
	c-1.1,0-2-0.3-2.8-1.1C167.2,64.4,166.9,63.3,166.9,61.9z M168.3,61.9c0,1.1,0.2,1.9,0.6,2.3c0.5,0.5,1.1,0.8,1.7,0.8
	c0.6,0,1.2-0.3,1.7-0.8c0.5-0.5,0.6-1.2,0.6-2.3c0-1.1-0.2-1.7-0.8-2.2c-0.5-0.5-1.1-0.8-1.7-0.8c-0.6,0-1.2,0.3-1.7,0.8
	C168.6,60.2,168.3,60.9,168.3,61.9z M180.4,66V55h1.4v11H180.4z M189.2,63.3l1.4,0.2c-0.2,0.8-0.6,1.4-1.2,1.9
	c-0.6,0.5-1.4,0.6-2.3,0.6c-1.2,0-2.2-0.3-2.8-1.1c-0.6-0.8-1.1-1.7-1.1-3.1c0-1.4,0.3-2.3,1.1-3.1c0.8-0.8,1.5-1.1,2.6-1.1
	s2,0.5,2.6,1.1c0.6,0.8,1.1,1.7,1.1,3.1c0,0.2,0,0.2,0,0.5h-6c0,0.9,0.3,1.6,0.8,2c0.5,0.5,1.1,0.8,1.7,0.8c0.5,0,0.9-0.2,1.2-0.5
	C188.6,64.3,189,64,189.2,63.3z M184.9,61.2h4.5c0-0.6-0.2-1.2-0.5-1.6c-0.5-0.5-1.1-0.8-1.7-0.8c-0.6,0-1.1,0.2-1.5,0.6
	C185.2,59.9,184.9,60.5,184.9,61.2z M185.9,57l0.9-2.2h1.9L187,57H185.9z M192.4,66V55h1.4v6.2l3.2-3.3h1.7l-3.1,2.9l3.4,5.1h-1.7
	l-2.6-4l-0.9,0.9V66H192.4z M205.3,64.9c-0.5,0.5-1.1,0.8-1.4,0.9c-0.5,0.2-0.9,0.3-1.5,0.3c-0.9,0-1.5-0.2-2-0.6
	c-0.5-0.5-0.8-0.9-0.8-1.6c0-0.5,0.2-0.8,0.3-1.1c0.2-0.3,0.5-0.6,0.8-0.8c0.3-0.2,0.6-0.3,1.1-0.5c0.3,0,0.6-0.2,1.2-0.2
	c1.1-0.2,1.9-0.3,2.5-0.5c0-0.2,0-0.3,0-0.3c0-0.5-0.2-0.9-0.5-1.1c-0.3-0.3-0.9-0.5-1.5-0.5c-0.6,0-1.1,0.2-1.4,0.3
	c-0.3,0.2-0.5,0.6-0.6,1.2l-1.4-0.2c0.2-0.6,0.3-1.1,0.6-1.4c0.3-0.3,0.6-0.6,1.2-0.8c0.5-0.2,1.1-0.3,1.9-0.3
	c0.8,0,1.2,0.2,1.7,0.3c0.5,0.2,0.8,0.3,0.9,0.6c0.2,0.2,0.3,0.5,0.5,0.9c0,0.2,0.2,0.6,0.2,1.2V63c0,1.2,0,2,0.2,2.3
	c0,0.3,0.2,0.6,0.3,0.9h-1.4C205.4,65.7,205.4,65.4,205.3,64.9z M205.3,61.9c-0.5,0.2-1.2,0.3-2.2,0.5c-0.6,0.2-0.9,0.2-1.2,0.3
	c-0.3,0.2-0.5,0.3-0.5,0.5c-0.2,0.2-0.2,0.5-0.2,0.6c0,0.3,0.2,0.6,0.5,0.9c0.3,0.2,0.6,0.3,1.2,0.3c0.5,0,1.1-0.2,1.4-0.3
	c0.3-0.2,0.8-0.5,0.9-0.9c0.2-0.3,0.2-0.8,0.2-1.4L205.3,61.9z M208.7,66v-8.1h1.2v1.2c0.3-0.6,0.6-0.9,0.9-1.1
	c0.3-0.2,0.6-0.3,0.9-0.3c0.5,0,0.9,0.2,1.4,0.5l-0.5,1.2c-0.3-0.2-0.6-0.3-1.1-0.3c-0.3,0-0.6,0.2-0.8,0.3
	c-0.2,0.2-0.5,0.5-0.5,0.8c-0.2,0.5-0.3,1.1-0.3,1.6V66H208.7z M210.9,56l0.8-1.4h1.5l-1.7,2.2h-1.4l-1.5-2.2h1.5L210.9,56z
	 M219.4,63.3l1.4,0.2c-0.2,0.8-0.6,1.4-1.2,1.9c-0.6,0.5-1.4,0.6-2.3,0.6c-1.2,0-2.2-0.3-2.8-1.1c-0.6-0.8-1.1-1.7-1.1-3.1
	c0-1.4,0.3-2.3,1.1-3.1c0.6-0.8,1.5-1.1,2.6-1.1c1.1,0,1.9,0.5,2.6,1.1c0.6,0.8,1.1,1.7,1.1,3.1c0,0.2,0,0.2,0,0.5h-6
	c0,0.9,0.3,1.6,0.8,2c0.5,0.5,1.1,0.8,1.7,0.8c0.5,0,0.9-0.2,1.2-0.5C218.9,64.4,219.2,64,219.4,63.3z M214.9,61.2h4.5
	c0-0.6-0.2-1.2-0.5-1.6c-0.5-0.5-1.1-0.8-1.7-0.8c-0.6,0-1.1,0.2-1.5,0.6C215.2,59.9,214.9,60.5,214.9,61.2z"/>
<path class="st0" d="M16.2,54.8c0,0-1.4,0.2-2-0.3c-0.8-0.5-1.2-1.4-0.6-2.5c0.8-1.1,7-9.2,7.7-10.1c0.2-0.2-8-12.1,6.2-22.7
	c12.8-9.5,28.6-5.7,36.5-1.1c7.7,4.7,22.1,19.4,11.1,36.6c-4.5,7-7.3,11.6-9.4,16.6c-4,9-3.6,14.6-3.6,14.6s-0.5-6.2,1.5-13.2
	c2.2-7.3,7.7-14.9,9.6-18.5c3.6-6.8,8-20.8-7.4-31.3c-18.4-12.7-34.5-5.7-41.5,2.8c-6,7.4-1.1,16.1-1.1,16.1l-7.4,9.2
	c-0.5,0.5-1.7,1.9-1.1,2.5C15.1,54.6,16.2,54.8,16.2,54.8z"/>
<path class="st0" d="M37.1,39c-0.9-0.2-4.6-0.8-5.6-2.9c-1.7-4,1.2-6.8,1.2-6.8s-0.5,1.6-0.6,2.9C32,33.7,32.6,34,32.6,34
	s0.5-1.6,1.9-2.2c1.2-0.5,2.6,0.6,2.6,0.6s-1.5-0.2-2.5,0.5c-0.8,0.6-1.1,1.7-0.9,2.2c0.2,1.4,3.1,2.2,4,2.5c0.9-1.7,2.6-3.7,5.7-5
	c6.2-2.2,11.3,1.1,11.3,1.1s-6-1.6-10.7,0.8c-3.1,1.6-4,4.2-4.2,5.3c-0.3,1.1-0.2,3.3,1.9,5c2.9,2.8,4.5,2,8.5,4.5
	c3.7,2.2,5.3,7,7.3,8.4c0.9,0.6,5.4,2.6,8.7,0.3c3.6-2.6,5-10.4,5-10.4s0.8-4.3-1.2-9.2c-0.6-1.7-1.7-3.4-3.1-5
	c-0.5-0.2-0.9-0.5-1.4-0.6c-0.5-0.2-1.1-0.3-1.7-0.3c0.2,0.2,1.2,0.9,1.9,1.9c0.6,0.8,1.1,1.7,1.1,1.7s-1.1,0.8-1.5,1.6
	c-0.5,0.5-0.5,1.1-0.5,1.1s3.9-0.6,4.3,1.9c0.8,4-3.7,5.9-3.7,5.9s3.6-3.3,1.7-5.1c-1.4-1.6-4.6,0.3-4.6,0.3s0-1.4,0.6-2.8
	c0.8-1.7,2.3-3.3,2.3-3.3S64.6,34.8,64,34c-0.5-0.6-1.2-1.4-1.2-1.4s-0.8-0.2-1.5,0c-0.9,0.2-1.9,0.6-1.9,0.6s0.6-1.1,1.9-1.6
	c1.2-0.5,3.1-0.3,3.7-0.3c-0.9-1.1-2-2-2.9-2.8c-1.1-0.9-2.2-1.7-3.4-2.5c-1.1,0-3.4,0-5.9,0.6c-2.8,0.8-5,2.3-5,2.3
	s1.1-1.6,3.1-2.8c1.7-0.9,4.3-1.4,5.3-1.4c-3.7-1.9-7.4-2.5-10.4-2.8l-2,0.9c0,0,4,0.8,1.5,3.7c-2.2,2.8-9,1.2-9,1.2
	s6.7,0.2,7.6-2.2c0.9-2.5-3.7-1.2-3.7-1.2l2.9-2.6c-1.1,0-1.9,0.2-2.2,0.2c-1.1,0.2-6.5,0.8-9.6,4.2c-2.5,2.6-2.9,4.5-3.1,5.4
	c-0.3,0.9-0.8,3.7,0.8,5.6c2,2.5,5.4,3.7,7.7,4.2c0.3,0,0.2,0.2,0.3,0.8c0,0.3,0.2,0.8,0.2,0.8s-7.6-0.6-10.7-5.6
	c-1.7-2.8-0.8-7.1-0.5-8.4c0.5-1.4,1.7-4.3,7-7.1c4-2.2,9.3-2.5,11.9-2.5h0.2c0,0.2,0.5,1.1,0.5,1.1l1.1-1.1c0,0,7.1,0.6,13,3.9
	c0,0,0.2,0,0.2,0.2c0,0.2-0.2,1.4-0.2,1.4l1.9-0.3c0,0.2,0,0.2,0.2,0.2c2.6,1.9,5,4.2,6.5,5.9l-0.8,1.2l2.5,0.8c0,0,2.8,4.2,3.4,8.7
	c0.6,4.8-1.1,9.8-1.1,9.8s-1.1,4.3-4.2,7.1c0,0.9,0,3.4-1.5,5c-2.5,2.6-5.3,2.2-5.3,2.2s2.6-0.6,3.9-2.2c0.9-1.2,0.8-2.8,0.6-3.3
	c-0.9,0.5-2,0.8-3.2,0.9c-0.2,0-0.3,0-0.5,0c-0.8,0.9-4.3,4.8-5.9,9.6c-1.7,5.4-1.2,11.8-1.2,11.8s-1.2-5.6-0.3-11
	c0.9-4.8,3.6-9.5,4.2-10.7c-1.4-0.3-2.3-0.8-3.2-1.4c-0.2,0.2-1.2,2.5-2.2,5.1c-1.1,3.6-1.9,7.8-1.9,7.8s-0.2-2.5,0.3-5.1
	c0.3-1.9,0.6-3.4,0.6-3.4s-1.5-1.1-2.2-2.8c-0.5-1.9-0.2-3.9-0.2-3.9s0.2,2.2,1.1,3.7c0.6,1.1,1.9,1.6,1.9,1.6l1.2-4
	c-1.2-1.4-1.7-2.9-1.9-3.3c-0.6-0.6-1.4-2-3.1-3.1c-1.7-1.2-4.3-2-4.3-2s-4.5-1.2-6.5-3.7c-1.1-1.4-1.5-2.8-1.5-4
	c-0.2-0.9,0-1.7,0.2-2.2C37.1,39.3,37.1,39.1,37.1,39z"/>
<path class="st0" d="M43.3,37.3c0,0,1.1,0.3,1.5,0.9c0.5,0.5,0.6,0.9,0.6,0.9s-0.6,1.4-0.3,2.2c0.5,1.2,1.1,1.9,2.2,2.5
	c1.9,0.9,3.1,0.3,5.7,1.2c0.9,0.3,1.7,0.9,2.5,1.4c0.2,0,0.2,0.2,0.3,0.2c0,0.2-0.2,0.3-0.3,0.6C55,47.7,54.4,48,54.4,48
	s0.6,0,1.2-0.3c0.5-0.2,0.6-0.3,0.8-0.5c1.4,1.9,1.1,4.7,1.1,4.7s1.5-0.3,2.8,0.2c0.6,0.2,1.1,0.6,1.4,0.9c-0.2,0.3-0.2,0.6-0.6,1.1
	C60.6,54.6,60,55,60,55s0.6,0,1.5-0.5c0.5-0.3,0.9-0.6,1.1-0.8c0.5,0.6,1.7,1.6,2.8,1.4c1.9-0.5,1.7-3.4,1.7-3.4s-0.8,2.6-2.5,1.9
	c-1.1-0.3-2-2.2-3.1-2.9c-1.1-0.8-2.3-0.5-2.3-0.5s0.2-2.9-1.5-4.5c-1.9-1.7-4.3-2.3-5.7-2.5c0-0.3,0.2-0.8,0.5-1.1
	c0.8-0.9,2.2-1.6,2.2-1.6s-1.4,0.2-2.6,0.9c-0.6,0.5-1.1,1.1-1.4,1.6c-1.4-0.2-3.1-0.8-3.4-1.9c-0.8-2.2,2.5-3.4,2.5-3.4
	s-0.8-0.2-1.5,0c-0.8,0.2-1.4,0.8-1.4,0.8s-0.8-0.9-1.5-1.2C44.1,37,43.3,37.3,43.3,37.3z"/>
<path class="st0" d="M174.2,28h8.8l4.5,14l4.6-14h8.5v21.1h-5.6l0.2-16.1l-5.4,16.1h-5.1l-5.1-16.1v16.1h-5.4V28z"/>
<path class="st0" d="M204.2,28h14.9v4h-9.3v4.3h8.8v3.9h-8.8V45h9.6v4h-15.2V28z"/>
<path class="st0" d="M222.8,28h7.6c1.9,0,3.6,0.2,5.1,0.5c1.5,0.3,2.8,0.9,4,1.7c1.1,0.8,1.9,1.9,2.5,3.3c0.6,1.4,0.9,3.1,0.9,5.1
	c0,2-0.3,3.7-0.9,5c-0.6,1.4-1.5,2.5-2.6,3.3c-1.1,0.8-2.5,1.4-4,1.9c-1.5,0.5-3.2,0.6-5,0.6h-7.6V28z M228.3,44.9h2.2
	c2.2,0,3.7-0.5,4.8-1.6c1.1-1.1,1.7-2.6,1.7-4.8s-0.6-3.7-1.7-4.8c-1.1-1.1-2.8-1.6-4.8-1.6h-2.2V44.9z"/>
<path class="st0" d="M244.6,28h5.7v21.1h-5.7V28z"/>
<path class="st0" d="M259.6,37.9l-6-9.9h6.5l3.6,7l3.6-7h6.2l-6.2,9.9l6.8,11.2h-6.8l-4-7.8l-4,7.8h-6.3L259.6,37.9z"/>
<path class="st0" d="M100.1,32.6c-0.5-0.2-0.8-0.2-1.1-0.3c-0.3-0.2-0.6-0.2-0.9-0.3c-0.3,0-0.6-0.2-0.9-0.2s-0.6,0-1.1,0
	c-0.5,0-0.8,0-1.2,0.2c-0.5,0.2-0.8,0.2-1.2,0.5c-0.5,0.2-0.6,0.5-0.9,0.8c-0.2,0.2-0.2,0.6-0.2,1.1c0,0.6,0.2,1.1,0.6,1.6
	c0.5,0.5,1.1,0.8,1.7,1.1c0.8,0.3,1.4,0.6,2.2,0.9c0.8,0.3,1.5,0.8,2.2,1.2c0.6,0.5,1.2,1.1,1.7,1.7c0.5,0.6,0.6,1.6,0.6,2.5
	c0,1.1-0.2,1.9-0.6,2.6c-0.5,0.8-0.9,1.4-1.5,1.7c-0.8,0.5-1.5,0.8-2.5,1.1c-0.9,0.2-1.9,0.3-2.9,0.3c-0.8,0-1.4-0.2-2.2-0.3
	c-0.8-0.2-1.4-0.3-2.2-0.5l0.3-2.5c0.3,0.2,0.6,0.2,0.9,0.3c0.3,0.2,0.8,0.2,1.1,0.3c0.5,0.2,0.8,0.2,1.2,0.2
	c0.5,0.2,0.8,0.2,1.2,0.2c0.5,0,0.9,0,1.4-0.2c0.5-0.2,0.9-0.3,1.4-0.5c0.5-0.3,0.8-0.6,1.1-0.9c0.3-0.3,0.5-0.8,0.5-1.4
	c0-0.8-0.2-1.2-0.6-1.7c-0.5-0.5-1.1-0.8-1.7-1.2c-0.6-0.3-1.4-0.6-2.2-0.9c-0.8-0.3-1.5-0.6-2.2-1.1c-0.8-0.5-1.2-0.9-1.7-1.6
	c-0.5-0.6-0.6-1.4-0.6-2.5c0-0.8,0.2-1.6,0.5-2.2c0.3-0.6,0.8-1.2,1.4-1.6c0.6-0.3,1.4-0.8,2.2-0.9c0.8-0.3,1.7-0.3,2.6-0.3
	c0.8,0,1.4,0,2.2,0.2c0.8,0.2,1.5,0.3,2.2,0.5L100.1,32.6z"/>
<path class="st0" d="M104.1,34.8h2.6v2h0.2c0.5-0.8,1.2-1.4,2-1.7c0.8-0.5,1.7-0.6,2.9-0.6c0.9,0,1.7,0.2,2.5,0.6
	c0.8,0.5,1.4,1.1,1.9,2c0.3-0.5,0.6-0.9,1.1-1.2c0.5-0.3,0.8-0.6,1.2-0.8c0.5-0.2,0.9-0.5,1.4-0.5c0.5-0.2,0.8-0.2,1.2-0.2
	c0.9,0,1.9,0.2,2.5,0.5c0.8,0.3,1.2,0.6,1.7,1.1c0.5,0.5,0.8,1.1,0.9,1.6c0.2,0.6,0.3,1.4,0.3,2.2v9h-2.8v-8.2c0-0.5,0-0.9-0.2-1.4
	c0-0.5-0.2-0.8-0.5-1.2c-0.2-0.3-0.5-0.6-0.8-0.9c-0.3-0.2-0.8-0.3-1.4-0.3c-0.8,0-1.4,0.2-1.9,0.5c-0.5,0.3-0.9,0.6-1.2,1.1
	c-0.3,0.5-0.6,1.1-0.8,1.6c-0.2,0.6-0.3,1.2-0.3,1.9v7.1H114v-8.2c0-0.5,0-0.9-0.2-1.4c-0.2-0.5-0.2-0.8-0.5-1.2
	c-0.2-0.3-0.5-0.6-0.8-0.9c-0.3-0.2-0.8-0.3-1.4-0.3c-0.8,0-1.4,0.2-1.9,0.5c-0.5,0.3-0.9,0.6-1.2,1.1c-0.3,0.5-0.6,1.1-0.8,1.6
	c-0.2,0.6-0.2,1.2-0.2,1.9v7.1h-2.8v-14H104.1z"/>
<path class="st0" d="M130.7,35.9c0.8-0.5,1.4-0.8,2.3-0.9c0.9-0.2,1.7-0.3,2.8-0.3c2.2,0,3.7,0.5,4.8,1.4c0.9,0.9,1.4,2.3,1.4,4.2
	V46c0,0.8,0,1.4,0,1.9c0,0.5,0,0.8,0.2,0.9h-2.6V47h-0.2c-0.2,0.2-0.3,0.5-0.6,0.6c-0.3,0.3-0.6,0.5-1.1,0.8
	c-0.5,0.2-0.8,0.5-1.4,0.5c-0.5,0.2-1.1,0.2-1.7,0.2c-0.8,0-1.5-0.2-2.3-0.3c-0.8-0.2-1.2-0.5-1.9-0.8c-0.5-0.3-0.9-0.8-1.1-1.4
	c-0.3-0.5-0.5-1.2-0.5-1.9c0-0.9,0.2-1.6,0.8-2.2c0.6-0.6,1.1-1.1,1.7-1.4c0.6-0.3,1.5-0.6,2.3-0.8c0.8-0.2,1.5-0.2,2.3-0.2
	c0.6,0,1.1,0,1.5,0c0.5,0,0.9,0,1.5,0c0-1.2-0.3-2.2-0.8-2.6c-0.5-0.6-1.5-0.9-2.9-0.9c-0.8,0-1.5,0.2-2.5,0.5
	c-0.8,0.2-1.5,0.6-2,1.1L130.7,35.9z M139.1,42.1c-0.3,0-0.6,0-0.9,0c-0.3,0-0.6,0-0.9,0c-0.5,0-0.9,0-1.5,0.2
	c-0.6,0-1.2,0.2-1.7,0.3c-0.6,0.2-1.1,0.5-1.5,0.8c-0.5,0.3-0.6,0.8-0.6,1.4c0,0.3,0.2,0.6,0.3,0.9c0.2,0.3,0.5,0.5,0.6,0.8
	c0.3,0.2,0.6,0.3,0.9,0.5c0.3,0.2,0.6,0.2,1.1,0.2c1.4,0,2.5-0.3,3.1-1.1c0.8-0.8,1.1-1.6,1.1-2.6v-1.2H139.1z"/>
<path class="st0" d="M145.7,34.8h2.6V37h0.2c0.3-0.8,0.9-1.4,1.7-1.7c0.8-0.5,1.5-0.8,2.3-0.8c0.5,0,0.8,0,1.1,0
	c0.3,0,0.6,0.2,0.9,0.2V37c-0.3-0.2-0.5-0.2-0.8-0.2c-0.3,0-0.5,0-0.8,0c-1.2,0-2.3,0.5-3.1,1.6c-0.8,1.1-1.2,2.5-1.2,4.2v6.2h-2.8
	v-14H145.7z"/>
<path class="st0" d="M166.4,37h-4v7.6c0,0.8,0.2,1.4,0.8,1.9c0.5,0.5,1.1,0.6,1.7,0.6c0.5,0,0.8,0,1.1-0.2c0.3-0.2,0.6-0.2,0.8-0.3
	v2.2c-0.3,0.2-0.8,0.2-1.1,0.3c-0.5,0.2-0.9,0.2-1.4,0.2c-1.4,0-2.6-0.3-3.4-0.9c-0.8-0.6-1.2-1.7-1.2-3.1v-8.1h-3.4v-2.3h3.4v-3.1
	l2.8-0.8v3.9h4V37z"/>
<path class="st0" d="M278,28c0.6,0,1.2,0.2,1.7,0.5c0.5,0.3,1.1,0.8,1.4,1.4c0.3,0.6,0.5,1.1,0.5,1.9c0,0.6-0.2,1.2-0.5,1.7
	c-0.3,0.6-0.8,1.1-1.4,1.4c-0.6,0.3-1.1,0.5-1.7,0.5c-0.6,0-1.2-0.2-1.9-0.5c-0.6-0.3-1.1-0.8-1.4-1.4c-0.3-0.6-0.5-1.1-0.5-1.7
	s0.2-1.2,0.5-1.9c0.3-0.6,0.8-1.1,1.4-1.4C276.8,28.1,277.4,28,278,28z M278,28.6c-0.5,0-1.1,0.2-1.5,0.5c-0.5,0.3-0.8,0.6-1.1,1.1
	c-0.3,0.5-0.5,1.1-0.5,1.6c0,0.5,0.2,1.1,0.5,1.4c0.3,0.5,0.6,0.9,1.1,1.1c0.5,0.3,0.9,0.5,1.5,0.5c0.5,0,1.1-0.2,1.5-0.5
	c0.5-0.3,0.8-0.6,1.1-1.1c0.3-0.5,0.5-0.9,0.5-1.4c0-0.5-0.2-1.1-0.5-1.6c-0.3-0.5-0.6-0.8-1.1-1.1C278.9,28.7,278.5,28.6,278,28.6z
	 M276.5,33.5h0.6v-1.7h0.3c0.2,0,0.5,0,0.5,0.2c0.2,0.2,0.5,0.5,0.6,0.9l0.3,0.6h0.8l-0.5-0.8c-0.2-0.3-0.5-0.6-0.6-0.8
	c-0.2-0.2-0.2-0.2-0.3-0.2c0.3,0,0.6-0.2,0.8-0.3c0.2-0.2,0.3-0.5,0.3-0.8c0-0.2-0.2-0.5-0.2-0.6c-0.2-0.2-0.3-0.3-0.5-0.5
	c-0.2,0-0.6-0.2-1.1-0.2h-1.4v4H276.5z M277.1,31.4h0.8c0.5,0,0.6,0,0.8-0.2c0.2-0.2,0.2-0.3,0.2-0.5c0-0.2,0-0.2-0.2-0.3
	c0-0.2-0.2-0.2-0.3-0.2s-0.3,0-0.6,0h-0.8v1.1H277.1z"/>
</svg>
