<?xml version="1.0" encoding="UTF-8"?>
<svg id="Layer_1" data-name="Layer 1" xmlns="http://www.w3.org/2000/svg" width="302" height="98" viewBox="0 0 302 98">
  <path d="M90.3,66v-11h4.2c.8,0,1.2,0,1.7,.2,.6,.2,1.1,.3,1.4,.5,.3,.3,.6,.6,.9,1.1,.2,.5,.3,.9,.3,1.6,0,.9-.3,1.7-.9,2.3-.6,.6-1.7,.9-3.2,.9h-2.8v4.5h-1.5Zm1.4-5.7h2.8c.9,0,1.5-.2,2-.5,.5-.3,.6-.9,.6-1.6s-.2-.9-.3-1.2c-.2-.3-.5-.6-.9-.6-.3-.2-.8-.2-1.4-.2h-2.8v4Zm8.7,5.7v-8.1h1.2v1.2c.3-.6,.6-.9,.9-1.1,.3-.2,.6-.3,.9-.3,.5,0,.9,.2,1.4,.5l-.5,1.2c-.3-.2-.6-.3-1.1-.3s-.5,.2-.8,.3c-.2,.2-.5,.5-.5,.8-.2,.5-.2,1.1-.2,1.6v4.2h-1.5Zm4.6-4c0-1.6,.5-2.6,1.2-3.3,.8-.6,1.5-.9,2.5-.9s2,.5,2.8,1.1c.8,.8,1.1,1.7,1.1,2.9s-.2,1.9-.5,2.5c-.3,.6-.8,1.1-1.4,1.4-.6,.3-1.2,.5-2,.5s-2-.3-2.8-1.1c-.5-.6-.9-1.7-.9-3.1Zm1.4,0c0,1.1,.2,1.9,.8,2.3,.5,.5,1.1,.8,1.7,.8s1.2-.3,1.7-.8c.5-.5,.6-1.2,.6-2.3s-.2-1.7-.6-2.2c-.5-.5-1.1-.8-1.7-.8s-1.2,.3-1.7,.8c-.5,.5-.8,1.1-.8,2.2Zm7.6,4.7l1.4,.2c0,.5,.2,.8,.5,.9,.3,.3,.8,.3,1.4,.3s1.1-.2,1.4-.3c.3-.3,.6-.6,.8-1.1,0-.3,.2-.9,.2-1.7-.6,.8-1.4,1.1-2.2,1.1s-1.9-.5-2.5-1.2c-.6-.8-.9-1.7-.9-2.8s.2-1.6,.5-2.2c.3-.6,.6-1.2,1.2-1.6,.6-.3,1.1-.5,1.9-.5s1.7,.5,2.3,1.2v-1.1h1.2v7c0,1.2-.2,2.2-.3,2.6-.3,.5-.6,.9-1.2,1.2-.5,.3-1.2,.5-2,.5s-1.7-.2-2.3-.6c-1.1-.5-1.4-1.1-1.2-2Zm1.1-4.8c0,1.1,.2,1.9,.6,2.3,.5,.5,.9,.8,1.5,.8s1.1-.2,1.5-.8c.5-.5,.6-1.2,.6-2.2s-.2-1.9-.6-2.3c-.5-.5-.9-.8-1.5-.8s-1.1,.3-1.5,.8c-.5,.5-.6,1.2-.6,2.2Zm7.7,4.2v-8.1h1.2v1.2c.3-.6,.6-.9,.9-1.1,.3-.2,.5-.3,.9-.3s.9,.2,1.4,.5l-.5,1.2c-.3-.2-.6-.3-.9-.3s-.6,.2-.8,.3c-.3,.2-.5,.5-.5,.8-.2,.5-.2,1.1-.2,1.6v4.2h-1.7Zm10.4-1.1c-.5,.5-.9,.8-1.4,.9-.5,.2-.9,.3-1.5,.3-.9,0-1.5-.2-2-.6-.5-.5-.8-.9-.8-1.6s.2-.8,.3-1.1c.2-.3,.5-.6,.8-.8,.3-.2,.6-.3,1.1-.5,.3,0,.6-.2,1.2-.2,1.1-.2,1.9-.3,2.5-.5v-.3c0-.5-.2-.9-.5-1.1-.3-.3-.9-.5-1.5-.5s-1.1,.2-1.4,.3c-.3,.2-.5,.6-.6,1.2l-1.4-.2c.2-.6,.3-1.1,.6-1.4,.3-.3,.8-.6,1.2-.8,.5-.2,1.1-.3,1.9-.3s1.2,.2,1.7,.3c.5,.2,.8,.3,.9,.6,.2,.2,.3,.5,.5,.9v3.1c0,1.2,0,2,.2,2.3,0,.3,.2,.6,.3,.9h-1.4c-.5-.6-.6-.9-.6-1.4Zm-.2-2.9c-.5,.2-1.2,.3-2.2,.5-.6,.2-.9,.2-1.2,.3-.2,.2-.5,.3-.5,.5-.2,.2-.2,.5-.2,.6,0,.3,.2,.6,.5,.9,.3,.2,.6,.3,1.2,.3s1.1-.2,1.4-.3c.5-.2,.8-.5,.9-.9,.2-.3,.2-.8,.2-1.4v-.5h-.2Zm3.6,4v-8.1h1.2v1.1c.2-.5,.6-.8,1.1-.9,.5-.3,.9-.5,1.4-.5s1.1,.2,1.4,.5c.5,.2,.6,.6,.8,1.1,.6-.9,1.4-1.4,2.5-1.4s1.4,.2,1.9,.6c.5,.5,.6,1.1,.6,2v5.4h-1.4v-5.1c0-.5,0-.9-.2-1.2-.2-.2-.3-.5-.5-.6-.2-.2-.5-.2-.8-.2-.6,0-1.1,.2-1.4,.6-.3,.5-.6,.9-.6,1.9v4.7h-1.4v-5.3c0-.6-.2-1.1-.3-1.4-.2-.3-.6-.5-1.1-.5s-.8,.2-1.1,.3c-.3,.2-.6,.5-.8,.9-.2,.5-.2,.9-.2,1.7v4.2h-1.2v.2Zm17.2,3.1v-11.2h1.2v1.1c.3-.5,.6-.8,.9-.9,.5-.2,.8-.3,1.4-.3s1.2,.2,1.9,.5c.6,.3,.9,.9,1.2,1.6,.3,.6,.5,1.4,.5,2.2s-.2,1.6-.5,2.2c-.3,.6-.8,1.1-1.2,1.6-.6,.3-1.1,.5-1.9,.5s-.8-.2-1.2-.3c-.5-.2-.6-.5-.9-.8v3.9h-1.4v.2Zm1.2-7.1c0,1.1,.2,1.9,.6,2.3,.5,.5,.9,.8,1.5,.8s1.1-.3,1.5-.8c.5-.5,.6-1.2,.6-2.3s-.2-1.7-.6-2.3c-.5-.5-.9-.8-1.5-.8s-1.1,.3-1.5,.8c-.5,.6-.6,1.4-.6,2.3Zm7.3,4v-8.1h1.2v1.2c.3-.6,.6-.9,.9-1.1,.3-.2,.5-.3,.9-.3s.9,.2,1.4,.5l-.5,1.2c-.3-.2-.6-.3-1.1-.3s-.6,.2-.8,.3c-.3,.2-.5,.5-.5,.8-.2,.5-.2,1.1-.2,1.6v4.2h-1.5Zm4.6-4c0-1.6,.5-2.6,1.2-3.3,.6-.6,1.5-.9,2.5-.9s2,.5,2.8,1.1c.8,.8,1.1,1.7,1.1,2.9s-.2,1.9-.5,2.5c-.3,.6-.8,1.1-1.4,1.4-.6,.3-1.2,.5-1.9,.5-1.1,0-2-.3-2.8-1.1-.8-.6-1.1-1.7-1.1-3.1Zm1.4,0c0,1.1,.2,1.9,.6,2.3,.5,.5,1.1,.8,1.7,.8s1.2-.3,1.7-.8c.5-.5,.6-1.2,.6-2.3s-.2-1.7-.8-2.2c-.5-.5-1.1-.8-1.7-.8s-1.2,.3-1.7,.8c-.2,.5-.5,1.1-.5,2.2Zm12.1,4v-11h1.4v11h-1.4Zm8.8-2.6l1.4,.2c-.2,.8-.6,1.4-1.2,1.9-.6,.5-1.4,.6-2.3,.6s-2.2-.3-2.8-1.1c-.6-.8-1.1-1.7-1.1-3.1s.3-2.3,1.1-3.1c.8-.8,1.5-1.1,2.6-1.1s2,.5,2.6,1.1c.6,.8,1.1,1.7,1.1,3.1v.5h-6c0,.9,.3,1.6,.8,2,.5,.5,1.1,.8,1.7,.8s.9-.2,1.2-.5c.3-.3,.8-.6,.9-1.2Zm-4.3-2.2h4.5c0-.6-.2-1.2-.5-1.6-.5-.5-1.1-.8-1.7-.8s-1.1,.2-1.5,.6c-.5,.5-.8,1.1-.8,1.7Zm1.1-4.2l.9-2.2h1.9l-1.7,2.2h-1.1Zm6.5,9v-11h1.4v6.2l3.2-3.3h1.7l-3.1,2.9,3.4,5.1h-1.7l-2.6-4-.9,.9v3.1h-1.4Zm12.8-1.1c-.5,.5-1.1,.8-1.4,.9-.5,.2-.9,.3-1.5,.3-.9,0-1.5-.2-2-.6-.5-.5-.8-.9-.8-1.6s.2-.8,.3-1.1c.2-.3,.5-.6,.8-.8,.3-.2,.6-.3,1.1-.5,.3,0,.6-.2,1.2-.2,1.1-.2,1.9-.3,2.5-.5v-.3c0-.5-.2-.9-.5-1.1-.3-.3-.9-.5-1.5-.5s-1.1,.2-1.4,.3c-.3,.2-.5,.6-.6,1.2l-1.4-.2c.2-.6,.3-1.1,.6-1.4,.3-.3,.6-.6,1.2-.8,.5-.2,1.1-.3,1.9-.3s1.2,.2,1.7,.3c.5,.2,.8,.3,.9,.6,.2,.2,.3,.5,.5,.9,0,.2,.2,.6,.2,1.2v1.9c0,1.2,0,2,.2,2.3,0,.3,.2,.6,.3,.9h-1.4c-.6-.6-.6-.9-.8-1.4Zm0-2.9c-.5,.2-1.2,.3-2.2,.5-.6,.2-.9,.2-1.2,.3-.3,.2-.5,.3-.5,.5-.2,.2-.2,.5-.2,.6,0,.3,.2,.6,.5,.9,.3,.2,.6,.3,1.2,.3s1.1-.2,1.4-.3c.3-.2,.8-.5,.9-.9,.2-.3,.2-.8,.2-1.4l-.2-.5Zm3.4,4v-8.1h1.2v1.2c.3-.6,.6-.9,.9-1.1,.3-.2,.6-.3,.9-.3,.5,0,.9,.2,1.4,.5l-.5,1.2c-.3-.2-.6-.3-1.1-.3s-.6,.2-.8,.3c-.2,.2-.5,.5-.5,.8-.2,.5-.3,1.1-.3,1.6v4.2h-1.4Zm2.2-9.9l.8-1.4h1.5l-1.7,2.2h-1.4l-1.5-2.2h1.5l.8,1.4Zm8.5,7.3l1.4,.2c-.2,.8-.6,1.4-1.2,1.9-.6,.5-1.4,.6-2.3,.6s-2.2-.3-2.8-1.1c-.6-.8-1.1-1.7-1.1-3.1s.3-2.3,1.1-3.1c.6-.8,1.5-1.1,2.6-1.1s1.9,.5,2.6,1.1c.6,.8,1.1,1.7,1.1,3.1v.5h-6c0,.9,.3,1.6,.8,2,.5,.5,1.1,.8,1.7,.8s.9-.2,1.2-.5c.5-.2,.8-.6,.9-1.2Zm-4.5-2.2h4.5c0-.6-.2-1.2-.5-1.6-.5-.5-1.1-.8-1.7-.8s-1.1,.2-1.5,.6c-.5,.5-.8,1.1-.8,1.7Z" fill="#fff" fill-rule="evenodd"/>
  <path d="M16.2,54.8s-1.4,.2-2-.3c-.8-.5-1.2-1.4-.6-2.5,.8-1.1,7-9.2,7.7-10.1,.2-.2-8-12.1,6.2-22.7,12.8-9.5,28.6-5.7,36.5-1.1,7.7,4.7,22.1,19.4,11.1,36.6-4.5,7-7.3,11.6-9.4,16.6-4,9-3.6,14.6-3.6,14.6,0,0-.5-6.2,1.5-13.2,2.2-7.3,7.7-14.9,9.6-18.5,3.6-6.8,8-20.8-7.4-31.3-18.4-12.7-34.5-5.7-41.5,2.8-6,7.4-1.1,16.1-1.1,16.1l-7.4,9.2c-.5,.5-1.7,1.9-1.1,2.5,.3,1.1,1.4,1.2,1.4,1.2Z" fill="#fff" fill-rule="evenodd"/>
  <path d="M37.1,39c-.9-.2-4.6-.8-5.6-2.9-1.7-4,1.2-6.8,1.2-6.8,0,0-.5,1.6-.6,2.9-.2,1.6,.5,1.9,.5,1.9,0,0,.5-1.6,1.9-2.2,1.2-.5,2.6,.6,2.6,.6,0,0-1.5-.2-2.5,.5-.8,.6-1.1,1.7-.9,2.2,.2,1.4,3.1,2.2,4,2.5,.9-1.7,2.6-3.7,5.7-5,6.2-2.2,11.3,1.1,11.3,1.1,0,0-6-1.6-10.7,.8-3.1,1.6-4,4.2-4.2,5.3-.3,1.1-.2,3.3,1.9,5,2.9,2.8,4.5,2,8.5,4.5,3.7,2.2,5.3,7,7.3,8.4,.9,.6,5.4,2.6,8.7,.3,3.6-2.6,5-10.4,5-10.4,0,0,.8-4.3-1.2-9.2-.6-1.7-1.7-3.4-3.1-5-.5-.2-.9-.5-1.4-.6-.5-.2-1.1-.3-1.7-.3,.2,.2,1.2,.9,1.9,1.9,.6,.8,1.1,1.7,1.1,1.7,0,0-1.1,.8-1.5,1.6-.5,.5-.5,1.1-.5,1.1,0,0,3.9-.6,4.3,1.9,.8,4-3.7,5.9-3.7,5.9,0,0,3.6-3.3,1.7-5.1-1.4-1.6-4.6,.3-4.6,.3,0,0,0-1.4,.6-2.8,.8-1.7,2.3-3.3,2.3-3.3,0,0-.6-.8-1.2-1.6-.5-.6-1.2-1.4-1.2-1.4,0,0-.8-.2-1.5,0-.9,.2-1.9,.6-1.9,.6,0,0,.6-1.1,1.9-1.6,1.2-.5,3.1-.3,3.7-.3-.9-1.1-2-2-2.9-2.8-1.1-.9-2.2-1.7-3.4-2.5-1.1,0-3.4,0-5.9,.6-2.8,.8-5,2.3-5,2.3,0,0,1.1-1.6,3.1-2.8,1.7-.9,4.3-1.4,5.3-1.4-3.7-1.9-7.4-2.5-10.4-2.8l-2,.9s4,.8,1.5,3.7c-2.2,2.8-9,1.2-9,1.2,0,0,6.7,.2,7.6-2.2,.9-2.5-3.7-1.2-3.7-1.2l2.9-2.6c-1.1,0-1.9,.2-2.2,.2-1.1,.2-6.5,.8-9.6,4.2-2.5,2.6-2.9,4.5-3.1,5.4-.3,.9-.8,3.7,.8,5.6,2,2.5,5.4,3.7,7.7,4.2,.3,0,.2,.2,.3,.8,0,.3,.2,.8,.2,.8,0,0-7.6-.6-10.7-5.6-1.7-2.8-.8-7.1-.5-8.4,.5-1.4,1.7-4.3,7-7.1,4-2.2,9.3-2.5,11.9-2.5h.2c0,.2,.5,1.1,.5,1.1l1.1-1.1s7.1,.6,13,3.9c0,0,.2,0,.2,.2s-.2,1.4-.2,1.4l1.9-.3q0,.2,.2,.2c2.6,1.9,5,4.2,6.5,5.9l-.8,1.2,2.5,.8s2.8,4.2,3.4,8.7c.6,4.8-1.1,9.8-1.1,9.8,0,0-1.1,4.3-4.2,7.1,0,.9,0,3.4-1.5,5-2.5,2.6-5.3,2.2-5.3,2.2,0,0,2.6-.6,3.9-2.2,.9-1.2,.8-2.8,.6-3.3-.9,.5-2,.8-3.2,.9h-.5c-.8,.9-4.3,4.8-5.9,9.6-1.7,5.4-1.2,11.8-1.2,11.8,0,0-1.2-5.6-.3-11,.9-4.8,3.6-9.5,4.2-10.7-1.4-.3-2.3-.8-3.2-1.4-.2,.2-1.2,2.5-2.2,5.1-1.1,3.6-1.9,7.8-1.9,7.8,0,0-.2-2.5,.3-5.1,.3-1.9,.6-3.4,.6-3.4,0,0-1.5-1.1-2.2-2.8-.5-1.9-.2-3.9-.2-3.9,0,0,.2,2.2,1.1,3.7,.6,1.1,1.9,1.6,1.9,1.6l1.2-4c-1.2-1.4-1.7-2.9-1.9-3.3-.6-.6-1.4-2-3.1-3.1-1.7-1.2-4.3-2-4.3-2,0,0-4.5-1.2-6.5-3.7-1.1-1.4-1.5-2.8-1.5-4-.2-.9,0-1.7,.2-2.2v-.8Z" fill="#fff" fill-rule="evenodd"/>
  <path d="M43.3,37.3s1.1,.3,1.5,.9c.5,.5,.6,.9,.6,.9,0,0-.6,1.4-.3,2.2,.5,1.2,1.1,1.9,2.2,2.5,1.9,.9,3.1,.3,5.7,1.2,.9,.3,1.7,.9,2.5,1.4,.2,0,.2,.2,.3,.2,0,.2-.2,.3-.3,.6-.5,.5-1.1,.8-1.1,.8,0,0,.6,0,1.2-.3,.5-.2,.6-.3,.8-.5,1.4,1.9,1.1,4.7,1.1,4.7,0,0,1.5-.3,2.8,.2,.6,.2,1.1,.6,1.4,.9-.2,.3-.2,.6-.6,1.1-.5,.6-1.1,.9-1.1,.9,0,0,.6,0,1.5-.5,.5-.3,.9-.6,1.1-.8,.5,.6,1.7,1.6,2.8,1.4,1.9-.5,1.7-3.4,1.7-3.4,0,0-.8,2.6-2.5,1.9-1.1-.3-2-2.2-3.1-2.9-1.1-.8-2.3-.5-2.3-.5,0,0,.2-2.9-1.5-4.5-1.9-1.7-4.3-2.3-5.7-2.5,0-.3,.2-.8,.5-1.1,.8-.9,2.2-1.6,2.2-1.6,0,0-1.4,.2-2.6,.9-.6,.5-1.1,1.1-1.4,1.6-1.4-.2-3.1-.8-3.4-1.9-.8-2.2,2.5-3.4,2.5-3.4,0,0-.8-.2-1.5,0-.8,.2-1.4,.8-1.4,.8,0,0-.8-.9-1.5-1.2-1.1-.3-1.9,0-1.9,0Z" fill="#fff" fill-rule="evenodd"/>
  <path d="M174.2,28h8.8l4.5,14,4.6-14h8.5v21.1h-5.6l.2-16.1-5.4,16.1h-5.1l-5.1-16.1v16.1h-5.4V28Z" fill="#fff" fill-rule="evenodd"/>
  <path d="M204.2,28h14.9v4h-9.3v4.3h8.8v3.9h-8.8v4.8h9.6v4h-15.2V28Z" fill="#fff" fill-rule="evenodd"/>
  <path d="M222.8,28h7.6c1.9,0,3.6,.2,5.1,.5,1.5,.3,2.8,.9,4,1.7,1.1,.8,1.9,1.9,2.5,3.3,.6,1.4,.9,3.1,.9,5.1s-.3,3.7-.9,5c-.6,1.4-1.5,2.5-2.6,3.3-1.1,.8-2.5,1.4-4,1.9-1.5,.5-3.2,.6-5,.6h-7.6V28Zm5.6,16.9h2.2c2.2,0,3.7-.5,4.8-1.6,1.1-1.1,1.7-2.6,1.7-4.8s-.6-3.7-1.7-4.8c-1.1-1.1-2.8-1.6-4.8-1.6h-2.2v12.7Z" fill="#fff" fill-rule="evenodd"/>
  <path d="M244.6,28h5.7v21.1h-5.7V28Z" fill="#fff" fill-rule="evenodd"/>
  <path d="M259.6,37.9l-6-9.9h6.5l3.6,7,3.6-7h6.2l-6.2,9.9,6.8,11.2h-6.8l-4-7.8-4,7.8h-6.3l6.8-11.2Z" fill="#fff" fill-rule="evenodd"/>
  <path d="M100.1,32.6c-.5-.2-.8-.2-1.1-.3-.3-.2-.6-.2-.9-.3-.3,0-.6-.2-.9-.2h-1.1c-.5,0-.8,0-1.2,.2-.5,.2-.8,.2-1.2,.5-.5,.2-.6,.5-.9,.8-.2,.2-.2,.6-.2,1.1s.2,1.1,.6,1.6c.5,.5,1.1,.8,1.7,1.1,.8,.3,1.4,.6,2.2,.9,.8,.3,1.5,.8,2.2,1.2,.6,.5,1.2,1.1,1.7,1.7,.5,.6,.6,1.6,.6,2.5s-.2,1.9-.6,2.6c-.5,.8-.9,1.4-1.5,1.7-.8,.5-1.5,.8-2.5,1.1-.9,.2-1.9,.3-2.9,.3s-1.4-.2-2.2-.3c-.8-.2-1.4-.3-2.2-.5l.3-2.5c.3,.2,.6,.2,.9,.3,.3,.2,.8,.2,1.1,.3,.5,.2,.8,.2,1.2,.2,.5,.2,.8,.2,1.2,.2s.9,0,1.4-.2c.5-.2,.9-.3,1.4-.5,.5-.3,.8-.6,1.1-.9,.3-.3,.5-.8,.5-1.4s-.2-1.2-.6-1.7c-.5-.5-1.1-.8-1.7-1.2-.6-.3-1.4-.6-2.2-.9-.8-.3-1.5-.6-2.2-1.1-.8-.5-1.2-.9-1.7-1.6-.5-.6-.6-1.4-.6-2.5s.2-1.6,.5-2.2c.3-.6,.8-1.2,1.4-1.6,.6-.3,1.4-.8,2.2-.9,.8-.3,1.7-.3,2.6-.3s1.4,0,2.2,.2c.8,.2,1.5,.3,2.2,.5l-.6,2.2Z" fill="#fff" fill-rule="evenodd"/>
  <path d="M104.1,34.8h2.6v2h.2c.5-.8,1.2-1.4,2-1.7,.8-.5,1.7-.6,2.9-.6s1.7,.2,2.5,.6c.8,.5,1.4,1.1,1.9,2,.3-.5,.6-.9,1.1-1.2,.5-.3,.8-.6,1.2-.8,.5-.2,.9-.5,1.4-.5,.5-.2,.8-.2,1.2-.2,.9,0,1.9,.2,2.5,.5,.8,.3,1.2,.6,1.7,1.1,.5,.5,.8,1.1,.9,1.6,.2,.6,.3,1.4,.3,2.2v9h-2.8v-8.2c0-.5,0-.9-.2-1.4,0-.5-.2-.8-.5-1.2-.2-.3-.5-.6-.8-.9-.3-.2-.8-.3-1.4-.3s-1.4,.2-1.9,.5c-.5,.3-.9,.6-1.2,1.1-.3,.5-.6,1.1-.8,1.6-.2,.6-.3,1.2-.3,1.9v7.1h-2.8v-8.2c0-.5,0-.9-.2-1.4-.2-.5-.2-.8-.5-1.2-.2-.3-.5-.6-.8-.9-.3-.2-.8-.3-1.4-.3s-1.4,.2-1.9,.5c-.5,.3-.9,.6-1.2,1.1-.3,.5-.6,1.1-.8,1.6-.2,.6-.2,1.2-.2,1.9v7.1h-2.8v-14h-.3Z" fill="#fff" fill-rule="evenodd"/>
  <path d="M130.7,35.9c.8-.5,1.4-.8,2.3-.9,.9-.2,1.7-.3,2.8-.3,2.2,0,3.7,.5,4.8,1.4,.9,.9,1.4,2.3,1.4,4.2v7.6c0,.5,0,.8,.2,.9h-2.6v-1.7h-.2c-.2,.2-.3,.5-.6,.6-.3,.3-.6,.5-1.1,.8-.5,.2-.8,.5-1.4,.5-.5,.2-1.1,.2-1.7,.2s-1.5-.2-2.3-.3c-.8-.2-1.2-.5-1.9-.8-.5-.3-.9-.8-1.1-1.4-.3-.5-.5-1.2-.5-1.9,0-.9,.2-1.6,.8-2.2,.6-.6,1.1-1.1,1.7-1.4,.6-.3,1.5-.6,2.3-.8,.8-.2,1.5-.2,2.3-.2h3.1c0-1.2-.3-2.2-.8-2.6-.5-.6-1.5-.9-2.9-.9s-1.5,.2-2.5,.5c-.8,.2-1.5,.6-2,1.1l-.2-2.3Zm8.4,6.2h-1.9c-.5,0-.9,0-1.5,.2-.6,0-1.2,.2-1.7,.3-.6,.2-1.1,.5-1.5,.8-.5,.3-.6,.8-.6,1.4s.2,.6,.3,.9c.2,.3,.5,.5,.6,.8,.3,.2,.6,.3,.9,.5,.3,.2,.6,.2,1.1,.2,1.4,0,2.5-.3,3.1-1.1,.8-.8,1.1-1.6,1.1-2.6v-1.2h.2Z" fill="#fff" fill-rule="evenodd"/>
  <path d="M145.7,34.8h2.6v2.2h.2c.3-.8,.9-1.4,1.7-1.7,.8-.5,1.5-.8,2.3-.8h1.1c.3,0,.6,.2,.9,.2v2.3c-.3-.2-.5-.2-.8-.2h-.8c-1.2,0-2.3,.5-3.1,1.6-.8,1.1-1.2,2.5-1.2,4.2v6.2h-2.8v-14h-.2Z" fill="#fff" fill-rule="evenodd"/>
  <path d="M166.4,37h-4v7.6c0,.8,.2,1.4,.8,1.9,.5,.5,1.1,.6,1.7,.6s.8,0,1.1-.2c.3-.2,.6-.2,.8-.3v2.2c-.3,.2-.8,.2-1.1,.3-.5,.2-.9,.2-1.4,.2-1.4,0-2.6-.3-3.4-.9-.8-.6-1.2-1.7-1.2-3.1v-8.1h-3.4v-2.3h3.4v-3.1l2.8-.8v3.9h4v2.2Z" fill="#fff" fill-rule="evenodd"/>
  <path d="M278,28c.6,0,1.2,.2,1.7,.5,.5,.3,1.1,.8,1.4,1.4,.3,.6,.5,1.1,.5,1.9s-.2,1.2-.5,1.7c-.3,.6-.8,1.1-1.4,1.4-.6,.3-1.1,.5-1.7,.5s-1.2-.2-1.9-.5c-.6-.3-1.1-.8-1.4-1.4-.3-.6-.5-1.1-.5-1.7s.2-1.2,.5-1.9c.3-.6,.8-1.1,1.4-1.4,.6-.3,1.2-.5,1.9-.5Zm0,.6c-.5,0-1.1,.2-1.5,.5-.5,.3-.8,.6-1.1,1.1-.3,.5-.5,1.1-.5,1.6s.2,1.1,.5,1.4c.3,.5,.6,.9,1.1,1.1,.5,.3,.9,.5,1.5,.5s1.1-.2,1.5-.5c.5-.3,.8-.6,1.1-1.1,.3-.5,.5-.9,.5-1.4s-.2-1.1-.5-1.6c-.3-.5-.6-.8-1.1-1.1-.6-.3-1.1-.5-1.5-.5Zm-1.5,5h.6v-1.7h.3c.2,0,.5,0,.5,.2,.2,.2,.5,.5,.6,.9l.3,.6h.8l-.5-.8c-.2-.3-.5-.6-.6-.8q-.2-.2-.3-.2c.3,0,.6-.2,.8-.3,.2-.2,.3-.5,.3-.8s-.2-.5-.2-.6c-.2-.2-.3-.3-.5-.5-.2,0-.6-.2-1.1-.2h-1.4v4h.3Zm.6-2.2h.8c.5,0,.6,0,.8-.2,.2-.2,.2-.3,.2-.5s0-.2-.2-.3c0-.2-.2-.2-.3-.2h-1.4v1.1h.2Z" fill="#fff" fill-rule="evenodd"/>
</svg>